<svg width="400" height="127" viewBox="0 0 400 127" fill="none" xmlns="http://www.w3.org/2000/svg">
<mask id="path-1-inside-1_0_1" fill="white">
<path d="M0 3C0 1.34314 1.34315 0 3 0H397C398.657 0 400 1.34315 400 3V124C400 125.657 398.657 127 397 127H3C1.34314 127 0 125.657 0 124V3Z"/>
</mask>
<path d="M0 3C0 1.34314 1.34315 0 3 0H397C398.657 0 400 1.34315 400 3V124C400 125.657 398.657 127 397 127H3C1.34314 127 0 125.657 0 124V3Z" fill="#1A1C1F"/>
<path d="M0 0H400H0ZM400 127H0H400ZM3 127C0.238576 127 -2 124.761 -2 122V5C-2 2.23858 0.238576 0 3 0C2.44772 0 2 1.34315 2 3V124C2 125.657 2.44772 127 3 127ZM400 0V127V0Z" fill="#319274" mask="url(#path-1-inside-1_0_1)"/>
<path d="M31.848 28L26.776 16.72H29.464L33.32 25.744H32.536L36.392 16.72H38.984L33.912 28H31.848ZM42.8064 28.176C41.3984 28.176 40.2997 27.7973 39.5104 27.04C38.721 26.2827 38.3264 25.2533 38.3264 23.952C38.3264 23.1093 38.4917 22.3733 38.8224 21.744C39.1637 21.1147 39.633 20.624 40.2304 20.272C40.8384 19.9093 41.5477 19.728 42.3584 19.728C43.1584 19.728 43.825 19.8987 44.3584 20.24C44.9024 20.5813 45.3077 21.0613 45.5744 21.68C45.8517 22.288 45.9904 22.9973 45.9904 23.808V24.368H40.3104V23.168H44.2304L43.9584 23.392C43.9584 22.72 43.8197 22.2133 43.5424 21.872C43.2757 21.52 42.8864 21.344 42.3744 21.344C41.809 21.344 41.3717 21.552 41.0624 21.968C40.7637 22.384 40.6144 22.9813 40.6144 23.76V24.016C40.6144 24.8053 40.8064 25.392 41.1904 25.776C41.585 26.16 42.1504 26.352 42.8864 26.352C43.3237 26.352 43.7344 26.2987 44.1184 26.192C44.513 26.0747 44.8864 25.8933 45.2384 25.648L45.9104 27.248C45.505 27.5467 45.0357 27.776 44.5024 27.936C43.9797 28.096 43.4144 28.176 42.8064 28.176ZM50.5153 28.176C49.7899 28.176 49.1286 28.096 48.5312 27.936C47.9339 27.776 47.4273 27.552 47.0113 27.264L47.6353 25.664C48.0513 25.92 48.5099 26.1227 49.0113 26.272C49.5233 26.4213 50.0299 26.496 50.5312 26.496C51.0006 26.496 51.3473 26.4213 51.5713 26.272C51.7953 26.1227 51.9073 25.92 51.9073 25.664C51.9073 25.4507 51.8326 25.2853 51.6833 25.168C51.5446 25.0507 51.3259 24.9653 51.0273 24.912L49.3793 24.608C48.6859 24.4693 48.1579 24.2133 47.7953 23.84C47.4326 23.4667 47.2513 22.9813 47.2513 22.384C47.2513 21.8613 47.3899 21.4027 47.6673 21.008C47.9553 20.6027 48.3659 20.288 48.8993 20.064C49.4326 19.84 50.0566 19.728 50.7713 19.728C51.3793 19.728 51.9553 19.8027 52.4993 19.952C53.0433 20.1013 53.5073 20.3307 53.8913 20.64L53.2353 22.192C52.9046 21.9467 52.5206 21.7493 52.0833 21.6C51.6566 21.4507 51.2459 21.376 50.8513 21.376C50.3393 21.376 49.9713 21.4613 49.7473 21.632C49.5233 21.792 49.4113 22 49.4113 22.256C49.4113 22.448 49.4753 22.608 49.6033 22.736C49.7419 22.864 49.9499 22.96 50.2273 23.024L51.8913 23.328C52.6059 23.456 53.1499 23.696 53.5233 24.048C53.8966 24.4 54.0833 24.8853 54.0833 25.504C54.0833 26.0693 53.9339 26.5493 53.6353 26.944C53.3366 27.3387 52.9153 27.6427 52.3713 27.856C51.8379 28.0693 51.2193 28.176 50.5153 28.176ZM59.2996 28.176C58.2436 28.176 57.449 27.9147 56.9156 27.392C56.3823 26.8587 56.1156 26.064 56.1156 25.008V21.696H54.5796V19.888H56.1156V17.904L58.5316 17.312V19.888H60.6116V21.696H58.5316V24.88C58.5316 25.392 58.6383 25.744 58.8516 25.936C59.065 26.128 59.337 26.224 59.6676 26.224C59.8703 26.224 60.0356 26.2133 60.1636 26.192C60.3023 26.16 60.4463 26.1173 60.5956 26.064V27.936C60.393 28.0213 60.1796 28.08 59.9556 28.112C59.7316 28.1547 59.513 28.176 59.2996 28.176ZM65.8533 28.176C64.4453 28.176 63.3466 27.7973 62.5573 27.04C61.7679 26.2827 61.3733 25.2533 61.3733 23.952C61.3733 23.1093 61.5386 22.3733 61.8693 21.744C62.2106 21.1147 62.6799 20.624 63.2773 20.272C63.8853 19.9093 64.5946 19.728 65.4053 19.728C66.2053 19.728 66.8719 19.8987 67.4053 20.24C67.9493 20.5813 68.3546 21.0613 68.6213 21.68C68.8986 22.288 69.0373 22.9973 69.0373 23.808V24.368H63.3573V23.168H67.2773L67.0053 23.392C67.0053 22.72 66.8666 22.2133 66.5893 21.872C66.3226 21.52 65.9333 21.344 65.4213 21.344C64.8559 21.344 64.4186 21.552 64.1093 21.968C63.8106 22.384 63.6613 22.9813 63.6613 23.76V24.016C63.6613 24.8053 63.8533 25.392 64.2373 25.776C64.6319 26.16 65.1973 26.352 65.9333 26.352C66.3706 26.352 66.7813 26.2987 67.1653 26.192C67.5599 26.0747 67.9333 25.8933 68.2853 25.648L68.9573 27.248C68.5519 27.5467 68.0826 27.776 67.5493 27.936C67.0266 28.096 66.4613 28.176 65.8533 28.176ZM70.5541 28V22.032C70.5541 21.68 70.5435 21.3227 70.5221 20.96C70.5115 20.5973 70.4848 20.24 70.4421 19.888H72.7621L73.0341 22.256H72.6661C72.7728 21.68 72.9435 21.2053 73.1781 20.832C73.4235 20.4587 73.7221 20.1813 74.0741 20C74.4368 19.8187 74.8475 19.728 75.3061 19.728C75.5088 19.728 75.6688 19.7387 75.7861 19.76C75.9035 19.7707 76.0208 19.7973 76.1381 19.84L76.1221 21.968C75.8981 21.872 75.7061 21.8133 75.5461 21.792C75.3968 21.76 75.2048 21.744 74.9701 21.744C74.5221 21.744 74.1488 21.8293 73.8501 22C73.5621 22.1707 73.3435 22.4213 73.1941 22.752C73.0555 23.0827 72.9861 23.4827 72.9861 23.952V28H70.5541ZM77.1483 28V19.888H79.5643V28H77.1483ZM77.0523 18.56V16.304H79.6443V18.56H77.0523ZM84.6909 28.176C83.9869 28.176 83.3682 28.0053 82.8349 27.664C82.3015 27.3227 81.8855 26.8373 81.5869 26.208C81.2882 25.5787 81.1389 24.8213 81.1389 23.936C81.1389 23.0613 81.2882 22.3093 81.5869 21.68C81.8855 21.0507 82.3015 20.5707 82.8349 20.24C83.3682 19.8987 83.9869 19.728 84.6909 19.728C85.3415 19.728 85.9229 19.888 86.4349 20.208C86.9575 20.5173 87.2989 20.9387 87.4589 21.472H87.2829L87.4749 19.888H89.7949C89.7629 20.24 89.7309 20.5973 89.6989 20.96C89.6775 21.312 89.6669 21.6587 89.6669 22V28H87.2669L87.2509 26.48H87.4429C87.2722 26.992 86.9309 27.4027 86.4189 27.712C85.9069 28.0213 85.3309 28.176 84.6909 28.176ZM85.4269 26.352C85.9815 26.352 86.4295 26.1547 86.7709 25.76C87.1122 25.3653 87.2829 24.7573 87.2829 23.936C87.2829 23.1147 87.1122 22.512 86.7709 22.128C86.4295 21.744 85.9815 21.552 85.4269 21.552C84.8722 21.552 84.4242 21.744 84.0829 22.128C83.7415 22.512 83.5709 23.1147 83.5709 23.936C83.5709 24.7573 83.7362 25.3653 84.0669 25.76C84.4082 26.1547 84.8615 26.352 85.4269 26.352ZM96.3239 28V16.72H98.8199V28H96.3239ZM100.945 28V22C100.945 21.6587 100.934 21.312 100.913 20.96C100.892 20.5973 100.86 20.24 100.817 19.888H103.137L103.313 21.392H103.121C103.388 20.8587 103.766 20.448 104.257 20.16C104.748 19.872 105.318 19.728 105.969 19.728C106.918 19.728 107.628 20.0053 108.097 20.56C108.577 21.104 108.817 21.952 108.817 23.104V28H106.401V23.216C106.401 22.6293 106.294 22.2133 106.081 21.968C105.868 21.7227 105.548 21.6 105.121 21.6C104.588 21.6 104.161 21.7707 103.841 22.112C103.521 22.4427 103.361 22.8907 103.361 23.456V28H100.945ZM114.662 28.176C113.798 28.176 113.04 28.0053 112.39 27.664C111.739 27.3227 111.238 26.832 110.886 26.192C110.534 25.552 110.358 24.7947 110.358 23.92C110.358 23.0347 110.534 22.2827 110.886 21.664C111.248 21.0347 111.75 20.5547 112.39 20.224C113.04 19.8933 113.798 19.728 114.662 19.728C115.206 19.728 115.734 19.808 116.246 19.968C116.768 20.128 117.195 20.352 117.526 20.64L116.822 22.304C116.555 22.0587 116.246 21.8773 115.894 21.76C115.552 21.632 115.222 21.568 114.902 21.568C114.251 21.568 113.744 21.7707 113.382 22.176C113.019 22.5813 112.838 23.168 112.838 23.936C112.838 24.704 113.019 25.2907 113.382 25.696C113.744 26.1013 114.251 26.304 114.902 26.304C115.211 26.304 115.536 26.2453 115.878 26.128C116.23 26.0107 116.544 25.8347 116.822 25.6L117.526 27.248C117.184 27.536 116.752 27.7653 116.23 27.936C115.718 28.096 115.195 28.176 114.662 28.176ZM118.847 28V25.44H121.439V28H118.847Z" fill="white"/>
<path d="M27.216 47L30.948 38.54H31.812L35.604 47H34.572L33.516 44.588L33.96 44.84H28.788L29.268 44.588L28.236 47H27.216ZM31.368 39.68L29.424 44.24L29.136 44.024H33.6L33.384 44.24L31.392 39.68H31.368ZM38.8962 47.108C38.1842 47.108 37.6442 46.912 37.2762 46.52C36.9162 46.128 36.7362 45.528 36.7362 44.72V40.976H37.7082V44.696C37.7082 45.248 37.8202 45.656 38.0442 45.92C38.2682 46.176 38.6162 46.304 39.0882 46.304C39.6162 46.304 40.0402 46.132 40.3602 45.788C40.6802 45.444 40.8402 44.984 40.8402 44.408V40.976H41.8122V47H40.8642V45.644H41.0202C40.8522 46.108 40.5802 46.468 40.2042 46.724C39.8362 46.98 39.4002 47.108 38.8962 47.108ZM46.35 49.676C45.83 49.676 45.35 49.612 44.91 49.484C44.47 49.356 44.074 49.16 43.722 48.896L44.01 48.164C44.258 48.34 44.502 48.48 44.742 48.584C44.982 48.688 45.23 48.764 45.486 48.812C45.742 48.868 46.014 48.896 46.302 48.896C46.894 48.896 47.342 48.74 47.646 48.428C47.95 48.116 48.102 47.672 48.102 47.096V45.332H48.222C48.094 45.804 47.83 46.18 47.43 46.46C47.03 46.732 46.562 46.868 46.026 46.868C45.474 46.868 44.994 46.748 44.586 46.508C44.186 46.26 43.874 45.912 43.65 45.464C43.434 45.008 43.326 44.472 43.326 43.856C43.326 43.248 43.434 42.72 43.65 42.272C43.874 41.824 44.186 41.48 44.586 41.24C44.994 40.992 45.474 40.868 46.026 40.868C46.57 40.868 47.038 41.004 47.43 41.276C47.83 41.548 48.094 41.924 48.222 42.404L48.102 42.284L48.21 40.976H49.158C49.126 41.208 49.102 41.444 49.086 41.684C49.07 41.916 49.062 42.144 49.062 42.368V46.964C49.062 47.86 48.83 48.536 48.366 48.992C47.91 49.448 47.238 49.676 46.35 49.676ZM46.206 46.076C46.79 46.076 47.25 45.884 47.586 45.5C47.922 45.108 48.09 44.56 48.09 43.856C48.09 43.152 47.922 42.608 47.586 42.224C47.25 41.84 46.79 41.648 46.206 41.648C45.63 41.648 45.17 41.84 44.826 42.224C44.482 42.608 44.31 43.152 44.31 43.856C44.31 44.56 44.482 45.108 44.826 45.5C45.17 45.884 45.63 46.076 46.206 46.076ZM54.1414 47V46.256L57.1414 43.124C57.5334 42.716 57.8254 42.328 58.0174 41.96C58.2174 41.584 58.3174 41.196 58.3174 40.796C58.3174 40.308 58.1654 39.94 57.8614 39.692C57.5574 39.436 57.1174 39.308 56.5414 39.308C56.0934 39.308 55.6774 39.388 55.2934 39.548C54.9174 39.7 54.5534 39.944 54.2014 40.28L53.8414 39.5C54.1614 39.18 54.5694 38.924 55.0654 38.732C55.5614 38.532 56.0854 38.432 56.6374 38.432C57.4934 38.432 58.1534 38.632 58.6174 39.032C59.0814 39.424 59.3134 39.984 59.3134 40.712C59.3134 41.248 59.1814 41.76 58.9174 42.248C58.6614 42.728 58.2854 43.224 57.7894 43.736L55.1374 46.424V46.148H59.6734V47H54.1414ZM63.9047 47.108C62.9447 47.108 62.2087 46.736 61.6967 45.992C61.1847 45.248 60.9287 44.172 60.9287 42.764C60.9287 41.348 61.1847 40.272 61.6967 39.536C62.2087 38.8 62.9447 38.432 63.9047 38.432C64.8727 38.432 65.6087 38.8 66.1127 39.536C66.6247 40.272 66.8807 41.344 66.8807 42.752C66.8807 44.168 66.6247 45.248 66.1127 45.992C65.6007 46.736 64.8647 47.108 63.9047 47.108ZM63.9047 46.244C64.5767 46.244 65.0767 45.96 65.4047 45.392C65.7327 44.824 65.8967 43.944 65.8967 42.752C65.8967 41.552 65.7327 40.676 65.4047 40.124C65.0767 39.564 64.5767 39.284 63.9047 39.284C63.2407 39.284 62.7407 39.564 62.4047 40.124C62.0767 40.684 61.9127 41.56 61.9127 42.752C61.9127 43.944 62.0767 44.824 62.4047 45.392C62.7407 45.96 63.2407 46.244 63.9047 46.244ZM68.532 47V46.256L71.532 43.124C71.924 42.716 72.216 42.328 72.408 41.96C72.608 41.584 72.708 41.196 72.708 40.796C72.708 40.308 72.556 39.94 72.252 39.692C71.948 39.436 71.508 39.308 70.932 39.308C70.484 39.308 70.068 39.388 69.684 39.548C69.308 39.7 68.944 39.944 68.592 40.28L68.232 39.5C68.552 39.18 68.96 38.924 69.456 38.732C69.952 38.532 70.476 38.432 71.028 38.432C71.884 38.432 72.544 38.632 73.008 39.032C73.472 39.424 73.704 39.984 73.704 40.712C73.704 41.248 73.572 41.76 73.308 42.248C73.052 42.728 72.676 43.224 72.18 43.736L69.528 46.424V46.148H74.064V47H68.532ZM76.2193 47V46.148H78.2113V39.392H78.7393L76.4113 40.844V39.848L78.4873 38.54H79.2073V46.148H81.0793V47H76.2193ZM85.8835 44.108V43.304H89.3035V44.108H85.8835ZM94.3373 47V38.54H97.7813C98.6693 38.54 99.3533 38.756 99.8333 39.188C100.313 39.612 100.553 40.204 100.553 40.964C100.553 41.708 100.313 42.3 99.8333 42.74C99.3533 43.172 98.6693 43.388 97.7813 43.388H95.3333V47H94.3373ZM95.3333 42.56H97.6853C98.3013 42.56 98.7653 42.42 99.0773 42.14C99.3973 41.86 99.5573 41.468 99.5573 40.964C99.5573 40.452 99.3973 40.056 99.0773 39.776C98.7653 39.496 98.3013 39.356 97.6853 39.356H95.3333V42.56ZM101.904 47V42.428C101.904 42.188 101.896 41.944 101.88 41.696C101.872 41.448 101.856 41.208 101.832 40.976H102.768L102.888 42.44L102.72 42.452C102.8 42.092 102.94 41.796 103.14 41.564C103.34 41.332 103.576 41.16 103.848 41.048C104.12 40.928 104.404 40.868 104.7 40.868C104.82 40.868 104.924 40.872 105.012 40.88C105.108 40.888 105.196 40.908 105.276 40.94L105.264 41.804C105.144 41.764 105.032 41.74 104.928 41.732C104.832 41.716 104.72 41.708 104.592 41.708C104.24 41.708 103.932 41.792 103.668 41.96C103.412 42.128 103.216 42.344 103.08 42.608C102.952 42.872 102.888 43.152 102.888 43.448V47H101.904ZM108.894 47.108C107.95 47.108 107.206 46.836 106.662 46.292C106.118 45.74 105.846 44.976 105.846 44C105.846 43.368 105.966 42.82 106.206 42.356C106.446 41.884 106.782 41.52 107.214 41.264C107.646 41 108.142 40.868 108.702 40.868C109.254 40.868 109.718 40.984 110.094 41.216C110.47 41.448 110.758 41.78 110.958 42.212C111.158 42.636 111.258 43.14 111.258 43.724V44.084H106.59V43.472H110.622L110.418 43.628C110.418 42.988 110.274 42.488 109.986 42.128C109.698 41.768 109.27 41.588 108.702 41.588C108.102 41.588 107.634 41.8 107.298 42.224C106.962 42.64 106.794 43.204 106.794 43.916V44.024C106.794 44.776 106.978 45.348 107.346 45.74C107.722 46.124 108.246 46.316 108.918 46.316C109.278 46.316 109.614 46.264 109.926 46.16C110.246 46.048 110.55 45.868 110.838 45.62L111.174 46.304C110.91 46.56 110.574 46.76 110.166 46.904C109.766 47.04 109.342 47.108 108.894 47.108ZM114.749 47.108C114.269 47.108 113.821 47.044 113.405 46.916C112.989 46.78 112.645 46.592 112.373 46.352L112.709 45.668C113.005 45.9 113.325 46.072 113.669 46.184C114.021 46.296 114.385 46.352 114.761 46.352C115.241 46.352 115.601 46.268 115.841 46.1C116.089 45.924 116.213 45.684 116.213 45.38C116.213 45.148 116.133 44.964 115.973 44.828C115.821 44.684 115.569 44.572 115.217 44.492L114.101 44.264C113.589 44.152 113.205 43.964 112.949 43.7C112.693 43.428 112.565 43.084 112.565 42.668C112.565 42.316 112.657 42.008 112.841 41.744C113.025 41.472 113.293 41.26 113.645 41.108C113.997 40.948 114.409 40.868 114.881 40.868C115.321 40.868 115.725 40.936 116.093 41.072C116.469 41.2 116.781 41.388 117.029 41.636L116.681 42.308C116.441 42.076 116.165 41.904 115.853 41.792C115.549 41.672 115.233 41.612 114.905 41.612C114.433 41.612 114.077 41.708 113.837 41.9C113.605 42.084 113.489 42.328 113.489 42.632C113.489 42.864 113.561 43.056 113.705 43.208C113.857 43.352 114.089 43.46 114.401 43.532L115.517 43.76C116.061 43.88 116.465 44.068 116.729 44.324C117.001 44.572 117.137 44.908 117.137 45.332C117.137 45.692 117.037 46.008 116.837 46.28C116.637 46.544 116.357 46.748 115.997 46.892C115.645 47.036 115.229 47.108 114.749 47.108ZM121.374 47.108C120.43 47.108 119.686 46.836 119.142 46.292C118.598 45.74 118.326 44.976 118.326 44C118.326 43.368 118.446 42.82 118.686 42.356C118.926 41.884 119.262 41.52 119.694 41.264C120.126 41 120.622 40.868 121.182 40.868C121.734 40.868 122.198 40.984 122.574 41.216C122.95 41.448 123.238 41.78 123.438 42.212C123.638 42.636 123.738 43.14 123.738 43.724V44.084H119.07V43.472H123.102L122.898 43.628C122.898 42.988 122.754 42.488 122.466 42.128C122.178 41.768 121.75 41.588 121.182 41.588C120.582 41.588 120.114 41.8 119.778 42.224C119.442 42.64 119.274 43.204 119.274 43.916V44.024C119.274 44.776 119.458 45.348 119.826 45.74C120.202 46.124 120.726 46.316 121.398 46.316C121.758 46.316 122.094 46.264 122.406 46.16C122.726 46.048 123.03 45.868 123.318 45.62L123.654 46.304C123.39 46.56 123.054 46.76 122.646 46.904C122.246 47.04 121.822 47.108 121.374 47.108ZM125.225 47V42.368C125.225 42.144 125.213 41.916 125.189 41.684C125.173 41.444 125.153 41.208 125.129 40.976H126.065L126.185 42.296H126.041C126.217 41.832 126.497 41.48 126.881 41.24C127.273 40.992 127.725 40.868 128.237 40.868C128.949 40.868 129.485 41.06 129.845 41.444C130.213 41.82 130.397 42.416 130.397 43.232V47H129.425V43.292C129.425 42.724 129.309 42.312 129.077 42.056C128.853 41.792 128.501 41.66 128.021 41.66C127.461 41.66 127.017 41.832 126.689 42.176C126.361 42.52 126.197 42.98 126.197 43.556V47H125.225ZM134.393 47.108C133.801 47.108 133.349 46.94 133.037 46.604C132.725 46.26 132.569 45.744 132.569 45.056V41.732H131.393V40.976H132.569V39.332L133.541 39.056V40.976H135.269V41.732H133.541V44.948C133.541 45.428 133.621 45.772 133.781 45.98C133.949 46.18 134.197 46.28 134.525 46.28C134.677 46.28 134.813 46.268 134.933 46.244C135.053 46.212 135.161 46.176 135.257 46.136V46.952C135.145 47 135.009 47.036 134.849 47.06C134.697 47.092 134.545 47.108 134.393 47.108Z" fill="#319274"/>
<path d="M151.848 47.108C151.168 47.108 150.556 47.02 150.012 46.844C149.468 46.668 148.996 46.42 148.596 46.1L148.98 45.212C149.26 45.42 149.544 45.596 149.832 45.74C150.12 45.876 150.428 45.98 150.756 46.052C151.092 46.116 151.456 46.148 151.848 46.148C152.544 46.148 153.056 46.024 153.384 45.776C153.72 45.52 153.888 45.184 153.888 44.768C153.888 44.408 153.772 44.132 153.54 43.94C153.308 43.748 152.904 43.596 152.328 43.484L151.044 43.22C150.268 43.06 149.688 42.8 149.304 42.44C148.928 42.072 148.74 41.576 148.74 40.952C148.74 40.448 148.872 40.008 149.136 39.632C149.408 39.248 149.78 38.952 150.252 38.744C150.732 38.536 151.292 38.432 151.932 38.432C152.524 38.432 153.072 38.52 153.576 38.696C154.08 38.872 154.504 39.132 154.848 39.476L154.464 40.328C154.104 40 153.716 39.764 153.3 39.62C152.892 39.468 152.428 39.392 151.908 39.392C151.276 39.392 150.776 39.528 150.408 39.8C150.04 40.072 149.856 40.44 149.856 40.904C149.856 41.272 149.972 41.564 150.204 41.78C150.436 41.988 150.82 42.148 151.356 42.26L152.64 42.512C153.456 42.672 154.052 42.924 154.428 43.268C154.812 43.612 155.004 44.088 155.004 44.696C155.004 45.176 154.876 45.6 154.62 45.968C154.364 46.328 154 46.608 153.528 46.808C153.056 47.008 152.496 47.108 151.848 47.108ZM159.215 47.108C158.255 47.108 157.495 46.832 156.935 46.28C156.383 45.728 156.107 44.968 156.107 44C156.107 43.36 156.227 42.808 156.467 42.344C156.715 41.872 157.055 41.508 157.487 41.252C157.919 40.988 158.423 40.856 158.999 40.856C159.551 40.856 160.019 40.976 160.403 41.216C160.787 41.448 161.079 41.78 161.279 42.212C161.479 42.644 161.579 43.156 161.579 43.748V44.108H156.959V43.46H160.835L160.631 43.616C160.631 42.992 160.491 42.508 160.211 42.164C159.939 41.82 159.535 41.648 158.999 41.648C158.415 41.648 157.963 41.852 157.643 42.26C157.323 42.66 157.163 43.208 157.163 43.904V44.012C157.163 44.748 157.343 45.304 157.703 45.68C158.071 46.056 158.579 46.244 159.227 46.244C159.587 46.244 159.923 46.192 160.235 46.088C160.547 45.984 160.847 45.812 161.135 45.572L161.495 46.328C161.223 46.576 160.883 46.768 160.475 46.904C160.075 47.04 159.655 47.108 159.215 47.108ZM163.006 47V42.392C163.006 42.16 162.998 41.924 162.982 41.684C162.966 41.444 162.942 41.204 162.91 40.964H163.966L164.086 42.26H163.942C164.126 41.804 164.41 41.456 164.794 41.216C165.178 40.976 165.626 40.856 166.138 40.856C166.85 40.856 167.386 41.052 167.746 41.444C168.106 41.828 168.286 42.428 168.286 43.244V47H167.194V43.304C167.194 42.752 167.086 42.356 166.87 42.116C166.654 41.868 166.318 41.744 165.862 41.744C165.318 41.744 164.886 41.908 164.566 42.236C164.254 42.564 164.098 43.008 164.098 43.568V47H163.006ZM170.072 47V40.964H171.164V47H170.072ZM169.976 39.644V38.468H171.272V39.644H169.976ZM175.534 47.108C174.942 47.108 174.43 46.984 173.998 46.736C173.566 46.48 173.23 46.12 172.99 45.656C172.75 45.184 172.63 44.624 172.63 43.976C172.63 43.336 172.75 42.784 172.99 42.32C173.23 41.848 173.566 41.488 173.998 41.24C174.43 40.984 174.942 40.856 175.534 40.856C176.126 40.856 176.638 40.984 177.07 41.24C177.51 41.488 177.846 41.848 178.078 42.32C178.318 42.784 178.438 43.336 178.438 43.976C178.438 44.624 178.318 45.184 178.078 45.656C177.846 46.12 177.51 46.48 177.07 46.736C176.638 46.984 176.126 47.108 175.534 47.108ZM175.534 46.244C176.078 46.244 176.514 46.052 176.842 45.668C177.17 45.284 177.334 44.72 177.334 43.976C177.334 43.232 177.17 42.672 176.842 42.296C176.514 41.92 176.078 41.732 175.534 41.732C174.982 41.732 174.542 41.92 174.214 42.296C173.894 42.672 173.734 43.232 173.734 43.976C173.734 44.72 173.894 45.284 174.214 45.668C174.542 46.052 174.982 46.244 175.534 46.244ZM179.892 47V42.44C179.892 42.2 179.884 41.956 179.868 41.708C179.86 41.452 179.84 41.204 179.808 40.964H180.864L180.996 42.476L180.816 42.488C180.896 42.12 181.032 41.816 181.224 41.576C181.424 41.328 181.66 41.148 181.932 41.036C182.212 40.916 182.5 40.856 182.796 40.856C182.924 40.856 183.032 40.86 183.12 40.868C183.208 40.876 183.296 40.896 183.384 40.928L183.36 41.9C183.24 41.852 183.128 41.824 183.024 41.816C182.928 41.8 182.808 41.792 182.664 41.792C182.312 41.792 182.008 41.872 181.752 42.032C181.504 42.192 181.312 42.404 181.176 42.668C181.048 42.932 180.984 43.216 180.984 43.52V47H179.892ZM187.63 47V38.54H190.498C191.442 38.54 192.238 38.704 192.886 39.032C193.542 39.36 194.038 39.84 194.374 40.472C194.71 41.096 194.878 41.86 194.878 42.764C194.878 43.668 194.71 44.436 194.374 45.068C194.038 45.7 193.542 46.18 192.886 46.508C192.238 46.836 191.442 47 190.498 47H187.63ZM188.746 46.052H190.414C191.542 46.052 192.378 45.78 192.922 45.236C193.466 44.692 193.738 43.868 193.738 42.764C193.738 41.66 193.466 40.84 192.922 40.304C192.378 39.76 191.542 39.488 190.414 39.488H188.746V46.052ZM199.258 47.108C198.298 47.108 197.538 46.832 196.978 46.28C196.426 45.728 196.15 44.968 196.15 44C196.15 43.36 196.27 42.808 196.51 42.344C196.758 41.872 197.098 41.508 197.53 41.252C197.962 40.988 198.466 40.856 199.042 40.856C199.594 40.856 200.062 40.976 200.446 41.216C200.83 41.448 201.122 41.78 201.322 42.212C201.522 42.644 201.622 43.156 201.622 43.748V44.108H197.002V43.46H200.878L200.674 43.616C200.674 42.992 200.534 42.508 200.254 42.164C199.982 41.82 199.578 41.648 199.042 41.648C198.458 41.648 198.006 41.852 197.686 42.26C197.366 42.66 197.206 43.208 197.206 43.904V44.012C197.206 44.748 197.386 45.304 197.746 45.68C198.114 46.056 198.622 46.244 199.27 46.244C199.63 46.244 199.966 46.192 200.278 46.088C200.59 45.984 200.89 45.812 201.178 45.572L201.538 46.328C201.266 46.576 200.926 46.768 200.518 46.904C200.118 47.04 199.698 47.108 199.258 47.108ZM204.743 47L202.163 40.964H203.339L205.439 46.148H205.103L207.239 40.964H208.355L205.763 47H204.743ZM212.031 47.108C211.071 47.108 210.311 46.832 209.751 46.28C209.199 45.728 208.923 44.968 208.923 44C208.923 43.36 209.043 42.808 209.283 42.344C209.531 41.872 209.871 41.508 210.303 41.252C210.735 40.988 211.239 40.856 211.815 40.856C212.367 40.856 212.835 40.976 213.219 41.216C213.603 41.448 213.895 41.78 214.095 42.212C214.295 42.644 214.395 43.156 214.395 43.748V44.108H209.775V43.46H213.651L213.447 43.616C213.447 42.992 213.307 42.508 213.027 42.164C212.755 41.82 212.351 41.648 211.815 41.648C211.231 41.648 210.779 41.852 210.459 42.26C210.139 42.66 209.979 43.208 209.979 43.904V44.012C209.979 44.748 210.159 45.304 210.519 45.68C210.887 46.056 211.395 46.244 212.043 46.244C212.403 46.244 212.739 46.192 213.051 46.088C213.363 45.984 213.663 45.812 213.951 45.572L214.311 46.328C214.039 46.576 213.699 46.768 213.291 46.904C212.891 47.04 212.471 47.108 212.031 47.108ZM215.822 47V38.168H216.914V47H215.822ZM221.284 47.108C220.692 47.108 220.18 46.984 219.748 46.736C219.316 46.48 218.98 46.12 218.74 45.656C218.5 45.184 218.38 44.624 218.38 43.976C218.38 43.336 218.5 42.784 218.74 42.32C218.98 41.848 219.316 41.488 219.748 41.24C220.18 40.984 220.692 40.856 221.284 40.856C221.876 40.856 222.388 40.984 222.82 41.24C223.26 41.488 223.596 41.848 223.828 42.32C224.068 42.784 224.188 43.336 224.188 43.976C224.188 44.624 224.068 45.184 223.828 45.656C223.596 46.12 223.26 46.48 222.82 46.736C222.388 46.984 221.876 47.108 221.284 47.108ZM221.284 46.244C221.828 46.244 222.264 46.052 222.592 45.668C222.92 45.284 223.084 44.72 223.084 43.976C223.084 43.232 222.92 42.672 222.592 42.296C222.264 41.92 221.828 41.732 221.284 41.732C220.732 41.732 220.292 41.92 219.964 42.296C219.644 42.672 219.484 43.232 219.484 43.976C219.484 44.72 219.644 45.284 219.964 45.668C220.292 46.052 220.732 46.244 221.284 46.244ZM225.654 49.592V42.392C225.654 42.16 225.646 41.924 225.63 41.684C225.614 41.444 225.59 41.204 225.558 40.964H226.614L226.746 42.356H226.614C226.734 41.892 226.99 41.528 227.382 41.264C227.774 40.992 228.242 40.856 228.786 40.856C229.322 40.856 229.79 40.98 230.19 41.228C230.59 41.476 230.898 41.836 231.114 42.308C231.338 42.772 231.45 43.328 231.45 43.976C231.45 44.624 231.338 45.184 231.114 45.656C230.898 46.128 230.59 46.488 230.19 46.736C229.79 46.984 229.322 47.108 228.786 47.108C228.25 47.108 227.786 46.976 227.394 46.712C227.01 46.44 226.75 46.076 226.614 45.62H226.746V49.592H225.654ZM228.534 46.244C229.086 46.244 229.526 46.052 229.854 45.668C230.182 45.284 230.346 44.72 230.346 43.976C230.346 43.232 230.182 42.672 229.854 42.296C229.526 41.92 229.086 41.732 228.534 41.732C227.982 41.732 227.542 41.92 227.214 42.296C226.894 42.672 226.734 43.232 226.734 43.976C226.734 44.72 226.894 45.284 227.214 45.668C227.542 46.052 227.982 46.244 228.534 46.244ZM235.668 47.108C234.708 47.108 233.948 46.832 233.388 46.28C232.836 45.728 232.56 44.968 232.56 44C232.56 43.36 232.68 42.808 232.92 42.344C233.168 41.872 233.508 41.508 233.94 41.252C234.372 40.988 234.876 40.856 235.452 40.856C236.004 40.856 236.472 40.976 236.856 41.216C237.24 41.448 237.532 41.78 237.732 42.212C237.932 42.644 238.032 43.156 238.032 43.748V44.108H233.412V43.46H237.288L237.084 43.616C237.084 42.992 236.944 42.508 236.664 42.164C236.392 41.82 235.988 41.648 235.452 41.648C234.868 41.648 234.416 41.852 234.096 42.26C233.776 42.66 233.616 43.208 233.616 43.904V44.012C233.616 44.748 233.796 45.304 234.156 45.68C234.524 46.056 235.032 46.244 235.68 46.244C236.04 46.244 236.376 46.192 236.688 46.088C237 45.984 237.3 45.812 237.588 45.572L237.948 46.328C237.676 46.576 237.336 46.768 236.928 46.904C236.528 47.04 236.108 47.108 235.668 47.108ZM239.447 47V42.44C239.447 42.2 239.439 41.956 239.423 41.708C239.415 41.452 239.395 41.204 239.363 40.964H240.419L240.551 42.476L240.371 42.488C240.451 42.12 240.587 41.816 240.779 41.576C240.979 41.328 241.215 41.148 241.487 41.036C241.767 40.916 242.055 40.856 242.351 40.856C242.479 40.856 242.587 40.86 242.675 40.868C242.763 40.876 242.851 40.896 242.939 40.928L242.915 41.9C242.795 41.852 242.683 41.824 242.579 41.816C242.483 41.8 242.363 41.792 242.219 41.792C241.867 41.792 241.563 41.872 241.307 42.032C241.059 42.192 240.867 42.404 240.731 42.668C240.603 42.932 240.539 43.216 240.539 43.52V47H239.447Z" fill="#C4C4C4"/>
<path d="M35.0042 73.932C34.6122 73.932 34.2482 73.84 33.9122 73.656C33.5762 73.464 33.3082 73.204 33.1082 72.876C32.9082 72.548 32.8082 72.184 32.8082 71.784C32.8082 71.416 32.9002 71.068 33.0842 70.74C33.2762 70.412 33.5362 70.148 33.8642 69.948C34.2002 69.74 34.5802 69.636 35.0042 69.636C35.3962 69.636 35.7562 69.732 36.0842 69.924C36.4122 70.108 36.6762 70.36 36.8762 70.68C37.0842 71 37.1882 71.368 37.1882 71.784C37.1882 72.176 37.0882 72.536 36.8882 72.864C36.6962 73.192 36.4322 73.452 36.0962 73.644C35.7682 73.836 35.4042 73.932 35.0042 73.932ZM45.056 75V66.54H48.44C49.336 66.54 50.028 66.732 50.516 67.116C51.004 67.5 51.248 68.044 51.248 68.748C51.248 69.276 51.088 69.716 50.768 70.068C50.456 70.42 50.02 70.652 49.46 70.764V70.596C50.084 70.668 50.572 70.884 50.924 71.244C51.284 71.596 51.464 72.072 51.464 72.672C51.464 73.424 51.212 74 50.708 74.4C50.212 74.8 49.508 75 48.596 75H45.056ZM46.028 74.196H48.5C49.108 74.196 49.588 74.08 49.94 73.848C50.3 73.608 50.48 73.212 50.48 72.66C50.48 72.1 50.3 71.704 49.94 71.472C49.588 71.232 49.108 71.112 48.5 71.112H46.028V74.196ZM46.028 70.32H48.296C48.952 70.32 49.444 70.192 49.772 69.936C50.1 69.68 50.264 69.312 50.264 68.832C50.264 68.336 50.1 67.964 49.772 67.716C49.444 67.46 48.952 67.332 48.296 67.332H46.028V70.32ZM55.3963 75.108C54.8603 75.108 54.3923 74.984 53.9923 74.736C53.5923 74.48 53.2803 74.12 53.0563 73.656C52.8403 73.192 52.7323 72.636 52.7323 71.988C52.7323 71.332 52.8403 70.772 53.0563 70.308C53.2803 69.844 53.5923 69.488 53.9923 69.24C54.3923 68.992 54.8603 68.868 55.3963 68.868C55.9403 68.868 56.4083 69.008 56.8003 69.288C57.2003 69.56 57.4643 69.932 57.5923 70.404H57.4483L57.5803 68.976H58.5163C58.4923 69.208 58.4683 69.444 58.4443 69.684C58.4283 69.916 58.4203 70.144 58.4203 70.368V75H57.4483V73.584H57.5803C57.4523 74.056 57.1883 74.428 56.7883 74.7C56.3883 74.972 55.9243 75.108 55.3963 75.108ZM55.5883 74.316C56.1643 74.316 56.6203 74.12 56.9563 73.728C57.2923 73.328 57.4603 72.748 57.4603 71.988C57.4603 71.22 57.2923 70.64 56.9563 70.248C56.6203 69.848 56.1643 69.648 55.5883 69.648C55.0203 69.648 54.5643 69.848 54.2203 70.248C53.8843 70.64 53.7163 71.22 53.7163 71.988C53.7163 72.748 53.8843 73.328 54.2203 73.728C54.5643 74.12 55.0203 74.316 55.5883 74.316ZM62.8316 75.108C62.2396 75.108 61.7236 74.98 61.2836 74.724C60.8516 74.468 60.5156 74.104 60.2756 73.632C60.0436 73.16 59.9276 72.6 59.9276 71.952C59.9276 71.296 60.0476 70.74 60.2876 70.284C60.5276 69.82 60.8636 69.468 61.2956 69.228C61.7356 68.988 62.2476 68.868 62.8316 68.868C63.2156 68.868 63.5876 68.936 63.9476 69.072C64.3156 69.208 64.6196 69.4 64.8596 69.648L64.5116 70.344C64.2716 70.112 64.0076 69.94 63.7196 69.828C63.4396 69.716 63.1636 69.66 62.8916 69.66C62.2676 69.66 61.7836 69.856 61.4396 70.248C61.0956 70.64 60.9236 71.212 60.9236 71.964C60.9236 72.708 61.0956 73.284 61.4396 73.692C61.7836 74.1 62.2676 74.304 62.8916 74.304C63.1556 74.304 63.4276 74.252 63.7076 74.148C63.9956 74.044 64.2636 73.872 64.5116 73.632L64.8596 74.316C64.6116 74.572 64.3036 74.768 63.9356 74.904C63.5676 75.04 63.1996 75.108 62.8316 75.108ZM66.241 75V66.168H67.213V71.652H67.237L70.033 68.976H71.257L67.957 72.12L67.981 71.628L71.569 75H70.309L67.237 72.168H67.213V75H66.241ZM74.9404 75.108C73.9964 75.108 73.2524 74.836 72.7084 74.292C72.1644 73.74 71.8924 72.976 71.8924 72C71.8924 71.368 72.0124 70.82 72.2524 70.356C72.4924 69.884 72.8284 69.52 73.2604 69.264C73.6924 69 74.1884 68.868 74.7484 68.868C75.3004 68.868 75.7644 68.984 76.1404 69.216C76.5164 69.448 76.8044 69.78 77.0044 70.212C77.2044 70.636 77.3044 71.14 77.3044 71.724V72.084H72.6364V71.472H76.6684L76.4644 71.628C76.4644 70.988 76.3204 70.488 76.0324 70.128C75.7444 69.768 75.3164 69.588 74.7484 69.588C74.1484 69.588 73.6804 69.8 73.3444 70.224C73.0084 70.64 72.8404 71.204 72.8404 71.916V72.024C72.8404 72.776 73.0244 73.348 73.3924 73.74C73.7684 74.124 74.2924 74.316 74.9644 74.316C75.3244 74.316 75.6604 74.264 75.9724 74.16C76.2924 74.048 76.5964 73.868 76.8844 73.62L77.2204 74.304C76.9564 74.56 76.6204 74.76 76.2124 74.904C75.8124 75.04 75.3884 75.108 74.9404 75.108ZM78.7918 75V70.368C78.7918 70.144 78.7798 69.916 78.7558 69.684C78.7398 69.444 78.7198 69.208 78.6958 68.976H79.6318L79.7518 70.296H79.6077C79.7838 69.832 80.0638 69.48 80.4478 69.24C80.8398 68.992 81.2918 68.868 81.8038 68.868C82.5158 68.868 83.0518 69.06 83.4118 69.444C83.7798 69.82 83.9638 70.416 83.9638 71.232V75H82.9918V71.292C82.9918 70.724 82.8758 70.312 82.6438 70.056C82.4198 69.792 82.0678 69.66 81.5878 69.66C81.0278 69.66 80.5838 69.832 80.2558 70.176C79.9278 70.52 79.7638 70.98 79.7638 71.556V75H78.7918ZM88.103 75.108C87.575 75.108 87.111 74.984 86.711 74.736C86.311 74.48 85.999 74.12 85.775 73.656C85.559 73.192 85.451 72.636 85.451 71.988C85.451 71.332 85.559 70.772 85.775 70.308C85.999 69.844 86.311 69.488 86.711 69.24C87.111 68.992 87.575 68.868 88.103 68.868C88.647 68.868 89.115 69.004 89.507 69.276C89.907 69.548 90.175 69.916 90.311 70.38H90.167V66.168H91.139V75H90.179V73.56H90.311C90.183 74.04 89.919 74.42 89.519 74.7C89.119 74.972 88.647 75.108 88.103 75.108ZM88.307 74.316C88.875 74.316 89.331 74.12 89.675 73.728C90.019 73.328 90.191 72.748 90.191 71.988C90.191 71.22 90.019 70.64 89.675 70.248C89.331 69.848 88.875 69.648 88.307 69.648C87.739 69.648 87.283 69.848 86.939 70.248C86.603 70.64 86.435 71.22 86.435 71.988C86.435 72.748 86.603 73.328 86.939 73.728C87.283 74.12 87.739 74.316 88.307 74.316ZM98.4272 75.108C97.8992 75.108 97.4352 74.984 97.0352 74.736C96.6352 74.48 96.3232 74.12 96.0992 73.656C95.8832 73.192 95.7752 72.636 95.7752 71.988C95.7752 71.332 95.8832 70.772 96.0992 70.308C96.3232 69.844 96.6352 69.488 97.0352 69.24C97.4352 68.992 97.8992 68.868 98.4272 68.868C98.9712 68.868 99.4392 69.004 99.8312 69.276C100.231 69.548 100.499 69.916 100.635 70.38H100.491V66.168H101.463V75H100.503V73.56H100.635C100.507 74.04 100.243 74.42 99.8432 74.7C99.4432 74.972 98.9712 75.108 98.4272 75.108ZM98.6312 74.316C99.1992 74.316 99.6552 74.12 99.9992 73.728C100.343 73.328 100.515 72.748 100.515 71.988C100.515 71.22 100.343 70.64 99.9992 70.248C99.6552 69.848 99.1992 69.648 98.6312 69.648C98.0632 69.648 97.6072 69.848 97.2632 70.248C96.9272 70.64 96.7592 71.22 96.7592 71.988C96.7592 72.748 96.9272 73.328 97.2632 73.728C97.6072 74.12 98.0632 74.316 98.6312 74.316ZM106.019 75.108C105.075 75.108 104.331 74.836 103.787 74.292C103.243 73.74 102.971 72.976 102.971 72C102.971 71.368 103.091 70.82 103.331 70.356C103.571 69.884 103.907 69.52 104.339 69.264C104.771 69 105.267 68.868 105.827 68.868C106.379 68.868 106.843 68.984 107.219 69.216C107.595 69.448 107.883 69.78 108.083 70.212C108.283 70.636 108.383 71.14 108.383 71.724V72.084H103.715V71.472H107.747L107.543 71.628C107.543 70.988 107.399 70.488 107.111 70.128C106.823 69.768 106.395 69.588 105.827 69.588C105.227 69.588 104.759 69.8 104.423 70.224C104.087 70.64 103.919 71.204 103.919 71.916V72.024C103.919 72.776 104.103 73.348 104.471 73.74C104.847 74.124 105.371 74.316 106.043 74.316C106.403 74.316 106.739 74.264 107.051 74.16C107.371 74.048 107.675 73.868 107.963 73.62L108.299 74.304C108.035 74.56 107.699 74.76 107.291 74.904C106.891 75.04 106.467 75.108 106.019 75.108ZM111.576 75L108.996 68.976H110.052L112.212 74.28H111.888L114.072 68.976H115.08L112.5 75H111.576ZM118.769 75.108C117.825 75.108 117.081 74.836 116.537 74.292C115.993 73.74 115.721 72.976 115.721 72C115.721 71.368 115.841 70.82 116.081 70.356C116.321 69.884 116.657 69.52 117.089 69.264C117.521 69 118.017 68.868 118.577 68.868C119.129 68.868 119.593 68.984 119.969 69.216C120.345 69.448 120.633 69.78 120.833 70.212C121.033 70.636 121.133 71.14 121.133 71.724V72.084H116.465V71.472H120.497L120.293 71.628C120.293 70.988 120.149 70.488 119.861 70.128C119.573 69.768 119.145 69.588 118.577 69.588C117.977 69.588 117.509 69.8 117.173 70.224C116.837 70.64 116.669 71.204 116.669 71.916V72.024C116.669 72.776 116.853 73.348 117.221 73.74C117.597 74.124 118.121 74.316 118.793 74.316C119.153 74.316 119.489 74.264 119.801 74.16C120.121 74.048 120.425 73.868 120.713 73.62L121.049 74.304C120.785 74.56 120.449 74.76 120.041 74.904C119.641 75.04 119.217 75.108 118.769 75.108ZM122.62 75V66.168H123.592V75H122.62ZM127.951 75.108C127.375 75.108 126.871 74.984 126.439 74.736C126.015 74.48 125.687 74.12 125.455 73.656C125.223 73.184 125.107 72.628 125.107 71.988C125.107 71.34 125.223 70.784 125.455 70.32C125.687 69.856 126.015 69.5 126.439 69.252C126.871 68.996 127.375 68.868 127.951 68.868C128.535 68.868 129.039 68.996 129.463 69.252C129.895 69.5 130.227 69.856 130.459 70.32C130.699 70.784 130.819 71.34 130.819 71.988C130.819 72.628 130.699 73.184 130.459 73.656C130.227 74.12 129.895 74.48 129.463 74.736C129.039 74.984 128.535 75.108 127.951 75.108ZM127.951 74.316C128.527 74.316 128.983 74.12 129.319 73.728C129.655 73.328 129.823 72.748 129.823 71.988C129.823 71.22 129.651 70.64 129.307 70.248C128.971 69.848 128.519 69.648 127.951 69.648C127.383 69.648 126.931 69.848 126.595 70.248C126.259 70.64 126.091 71.22 126.091 71.988C126.091 72.748 126.259 73.328 126.595 73.728C126.931 74.12 127.383 74.316 127.951 74.316ZM132.335 77.592V70.368C132.335 70.144 132.323 69.916 132.299 69.684C132.283 69.444 132.263 69.208 132.239 68.976H133.175L133.307 70.404H133.163C133.291 69.932 133.551 69.56 133.943 69.288C134.335 69.008 134.803 68.868 135.347 68.868C135.891 68.868 136.359 68.992 136.751 69.24C137.151 69.488 137.463 69.844 137.687 70.308C137.911 70.772 138.023 71.332 138.023 71.988C138.023 72.636 137.911 73.192 137.687 73.656C137.471 74.12 137.163 74.48 136.763 74.736C136.363 74.984 135.891 75.108 135.347 75.108C134.811 75.108 134.347 74.972 133.955 74.7C133.563 74.428 133.303 74.056 133.175 73.584H133.307V77.592H132.335ZM135.155 74.316C135.731 74.316 136.187 74.12 136.523 73.728C136.867 73.328 137.039 72.748 137.039 71.988C137.039 71.22 136.867 70.64 136.523 70.248C136.187 69.848 135.731 69.648 135.155 69.648C134.587 69.648 134.131 69.848 133.787 70.248C133.451 70.64 133.283 71.22 133.283 71.988C133.283 72.748 133.451 73.328 133.787 73.728C134.131 74.12 134.587 74.316 135.155 74.316ZM139.53 75V70.368C139.53 70.144 139.518 69.916 139.494 69.684C139.478 69.444 139.458 69.208 139.434 68.976H140.37L140.49 70.296H140.346C140.506 69.84 140.758 69.488 141.102 69.24C141.454 68.992 141.878 68.868 142.374 68.868C142.878 68.868 143.286 68.988 143.598 69.228C143.918 69.468 144.134 69.84 144.246 70.344H144.066C144.218 69.888 144.486 69.528 144.87 69.264C145.254 69 145.702 68.868 146.214 68.868C146.878 68.868 147.378 69.06 147.714 69.444C148.05 69.82 148.218 70.416 148.218 71.232V75H147.246V71.292C147.246 70.724 147.146 70.312 146.946 70.056C146.746 69.792 146.426 69.66 145.986 69.66C145.482 69.66 145.082 69.836 144.786 70.188C144.498 70.532 144.354 70.996 144.354 71.58V75H143.382V71.292C143.382 70.724 143.282 70.312 143.082 70.056C142.882 69.792 142.562 69.66 142.122 69.66C141.618 69.66 141.222 69.836 140.934 70.188C140.646 70.532 140.502 70.996 140.502 71.58V75H139.53ZM152.741 75.108C151.797 75.108 151.053 74.836 150.509 74.292C149.965 73.74 149.693 72.976 149.693 72C149.693 71.368 149.813 70.82 150.053 70.356C150.293 69.884 150.629 69.52 151.061 69.264C151.493 69 151.989 68.868 152.549 68.868C153.101 68.868 153.565 68.984 153.941 69.216C154.317 69.448 154.605 69.78 154.805 70.212C155.005 70.636 155.105 71.14 155.105 71.724V72.084H150.437V71.472H154.469L154.265 71.628C154.265 70.988 154.121 70.488 153.833 70.128C153.545 69.768 153.117 69.588 152.549 69.588C151.949 69.588 151.481 69.8 151.145 70.224C150.809 70.64 150.641 71.204 150.641 71.916V72.024C150.641 72.776 150.825 73.348 151.193 73.74C151.569 74.124 152.093 74.316 152.765 74.316C153.125 74.316 153.461 74.264 153.773 74.16C154.093 74.048 154.397 73.868 154.685 73.62L155.021 74.304C154.757 74.56 154.421 74.76 154.013 74.904C153.613 75.04 153.189 75.108 152.741 75.108ZM156.593 75V70.368C156.593 70.144 156.581 69.916 156.557 69.684C156.541 69.444 156.521 69.208 156.497 68.976H157.433L157.553 70.296H157.409C157.585 69.832 157.865 69.48 158.249 69.24C158.641 68.992 159.093 68.868 159.605 68.868C160.317 68.868 160.853 69.06 161.213 69.444C161.581 69.82 161.765 70.416 161.765 71.232V75H160.793V71.292C160.793 70.724 160.677 70.312 160.445 70.056C160.221 69.792 159.869 69.66 159.389 69.66C158.829 69.66 158.385 69.832 158.057 70.176C157.729 70.52 157.565 70.98 157.565 71.556V75H156.593ZM165.76 75.108C165.168 75.108 164.716 74.94 164.404 74.604C164.092 74.26 163.936 73.744 163.936 73.056V69.732H162.76V68.976H163.936V67.332L164.908 67.056V68.976H166.636V69.732H164.908V72.948C164.908 73.428 164.988 73.772 165.148 73.98C165.316 74.18 165.564 74.28 165.892 74.28C166.044 74.28 166.18 74.268 166.3 74.244C166.42 74.212 166.528 74.176 166.624 74.136V74.952C166.512 75 166.376 75.036 166.216 75.06C166.064 75.092 165.912 75.108 165.76 75.108ZM35.0042 88.932C34.6122 88.932 34.2482 88.84 33.9122 88.656C33.5762 88.464 33.3082 88.204 33.1082 87.876C32.9082 87.548 32.8082 87.184 32.8082 86.784C32.8082 86.416 32.9002 86.068 33.0842 85.74C33.2762 85.412 33.5362 85.148 33.8642 84.948C34.2002 84.74 34.5802 84.636 35.0042 84.636C35.3962 84.636 35.7562 84.732 36.0842 84.924C36.4122 85.108 36.6762 85.36 36.8762 85.68C37.0842 86 37.1882 86.368 37.1882 86.784C37.1882 87.176 37.0882 87.536 36.8882 87.864C36.6962 88.192 36.4322 88.452 36.0962 88.644C35.7682 88.836 35.4042 88.932 35.0042 88.932ZM45.056 90V81.54H47.864C48.8 81.54 49.592 81.704 50.24 82.032C50.888 82.352 51.38 82.828 51.716 83.46C52.052 84.084 52.22 84.852 52.22 85.764C52.22 86.668 52.052 87.436 51.716 88.068C51.38 88.7 50.888 89.18 50.24 89.508C49.592 89.836 48.8 90 47.864 90H45.056ZM46.052 89.148H47.792C48.944 89.148 49.8 88.868 50.36 88.308C50.92 87.74 51.2 86.892 51.2 85.764C51.2 84.628 50.92 83.78 50.36 83.22C49.8 82.66 48.944 82.38 47.792 82.38H46.052V89.148ZM56.2048 90.108C55.6688 90.108 55.2008 89.984 54.8008 89.736C54.4008 89.48 54.0888 89.12 53.8648 88.656C53.6488 88.192 53.5408 87.636 53.5408 86.988C53.5408 86.332 53.6488 85.772 53.8648 85.308C54.0888 84.844 54.4008 84.488 54.8008 84.24C55.2008 83.992 55.6688 83.868 56.2048 83.868C56.7488 83.868 57.2168 84.008 57.6088 84.288C58.0088 84.56 58.2728 84.932 58.4008 85.404H58.2568L58.3888 83.976H59.3248C59.3008 84.208 59.2768 84.444 59.2528 84.684C59.2368 84.916 59.2288 85.144 59.2288 85.368V90H58.2568V88.584H58.3888C58.2608 89.056 57.9968 89.428 57.5968 89.7C57.1968 89.972 56.7328 90.108 56.2048 90.108ZM56.3968 89.316C56.9728 89.316 57.4288 89.12 57.7648 88.728C58.1008 88.328 58.2688 87.748 58.2688 86.988C58.2688 86.22 58.1008 85.64 57.7648 85.248C57.4288 84.848 56.9728 84.648 56.3968 84.648C55.8288 84.648 55.3728 84.848 55.0288 85.248C54.6928 85.64 54.5248 86.22 54.5248 86.988C54.5248 87.748 54.6928 88.328 55.0288 88.728C55.3728 89.12 55.8288 89.316 56.3968 89.316ZM63.2442 90.108C62.6522 90.108 62.2002 89.94 61.8882 89.604C61.5762 89.26 61.4202 88.744 61.4202 88.056V84.732H60.2442V83.976H61.4202V82.332L62.3922 82.056V83.976H64.1202V84.732H62.3922V87.948C62.3922 88.428 62.4722 88.772 62.6322 88.98C62.8002 89.18 63.0482 89.28 63.3762 89.28C63.5282 89.28 63.6642 89.268 63.7842 89.244C63.9042 89.212 64.0122 89.176 64.1082 89.136V89.952C63.9962 90 63.8602 90.036 63.7002 90.06C63.5482 90.092 63.3962 90.108 63.2442 90.108ZM67.5955 90.108C67.0595 90.108 66.5915 89.984 66.1915 89.736C65.7915 89.48 65.4795 89.12 65.2555 88.656C65.0395 88.192 64.9315 87.636 64.9315 86.988C64.9315 86.332 65.0395 85.772 65.2555 85.308C65.4795 84.844 65.7915 84.488 66.1915 84.24C66.5915 83.992 67.0595 83.868 67.5955 83.868C68.1395 83.868 68.6075 84.008 68.9995 84.288C69.3995 84.56 69.6635 84.932 69.7915 85.404H69.6475L69.7795 83.976H70.7155C70.6915 84.208 70.6675 84.444 70.6435 84.684C70.6275 84.916 70.6195 85.144 70.6195 85.368V90H69.6475V88.584H69.7795C69.6515 89.056 69.3875 89.428 68.9875 89.7C68.5875 89.972 68.1235 90.108 67.5955 90.108ZM67.7875 89.316C68.3635 89.316 68.8195 89.12 69.1555 88.728C69.4915 88.328 69.6595 87.748 69.6595 86.988C69.6595 86.22 69.4915 85.64 69.1555 85.248C68.8195 84.848 68.3635 84.648 67.7875 84.648C67.2195 84.648 66.7635 84.848 66.4195 85.248C66.0835 85.64 65.9155 86.22 65.9155 86.988C65.9155 87.748 66.0835 88.328 66.4195 88.728C66.7635 89.12 67.2195 89.316 67.7875 89.316ZM75.5228 90.108C74.9788 90.108 74.5108 89.972 74.1188 89.7C73.7268 89.42 73.4628 89.04 73.3268 88.56H73.4588V90H72.4988V81.168H73.4708V85.38H73.3268C73.4628 84.916 73.7268 84.548 74.1188 84.276C74.5108 84.004 74.9788 83.868 75.5228 83.868C76.0668 83.868 76.5348 83.996 76.9268 84.252C77.3268 84.5 77.6348 84.856 77.8508 85.32C78.0748 85.784 78.1868 86.34 78.1868 86.988C78.1868 87.636 78.0748 88.192 77.8508 88.656C77.6268 89.12 77.3148 89.48 76.9148 89.736C76.5228 89.984 76.0588 90.108 75.5228 90.108ZM75.3188 89.316C75.8868 89.316 76.3428 89.12 76.6868 88.728C77.0308 88.336 77.2028 87.756 77.2028 86.988C77.2028 86.22 77.0308 85.64 76.6868 85.248C76.3428 84.848 75.8868 84.648 75.3188 84.648C74.7508 84.648 74.2948 84.848 73.9508 85.248C73.6148 85.64 73.4468 86.22 73.4468 86.988C73.4468 87.748 73.6148 88.328 73.9508 88.728C74.2948 89.12 74.7508 89.316 75.3188 89.316ZM81.9861 90.108C81.4501 90.108 80.9821 89.984 80.5821 89.736C80.1821 89.48 79.8701 89.12 79.6461 88.656C79.4301 88.192 79.3221 87.636 79.3221 86.988C79.3221 86.332 79.4301 85.772 79.6461 85.308C79.8701 84.844 80.1821 84.488 80.5821 84.24C80.9821 83.992 81.4501 83.868 81.9861 83.868C82.5301 83.868 82.9981 84.008 83.3901 84.288C83.7901 84.56 84.0541 84.932 84.1821 85.404H84.0381L84.1701 83.976H85.1061C85.0821 84.208 85.0581 84.444 85.0341 84.684C85.0181 84.916 85.0101 85.144 85.0101 85.368V90H84.0381V88.584H84.1701C84.0421 89.056 83.7781 89.428 83.3781 89.7C82.9781 89.972 82.5141 90.108 81.9861 90.108ZM82.1781 89.316C82.7541 89.316 83.2101 89.12 83.5461 88.728C83.8821 88.328 84.0501 87.748 84.0501 86.988C84.0501 86.22 83.8821 85.64 83.5461 85.248C83.2101 84.848 82.7541 84.648 82.1781 84.648C81.6101 84.648 81.1541 84.848 80.8101 85.248C80.4741 85.64 80.3061 86.22 80.3061 86.988C80.3061 87.748 80.4741 88.328 80.8101 88.728C81.1541 89.12 81.6101 89.316 82.1781 89.316ZM88.8934 90.108C88.4134 90.108 87.9654 90.044 87.5494 89.916C87.1334 89.78 86.7894 89.592 86.5174 89.352L86.8534 88.668C87.1494 88.9 87.4694 89.072 87.8134 89.184C88.1654 89.296 88.5294 89.352 88.9054 89.352C89.3854 89.352 89.7454 89.268 89.9854 89.1C90.2334 88.924 90.3574 88.684 90.3574 88.38C90.3574 88.148 90.2774 87.964 90.1174 87.828C89.9654 87.684 89.7134 87.572 89.3614 87.492L88.2454 87.264C87.7334 87.152 87.3494 86.964 87.0934 86.7C86.8374 86.428 86.7094 86.084 86.7094 85.668C86.7094 85.316 86.8014 85.008 86.9854 84.744C87.1694 84.472 87.4374 84.26 87.7894 84.108C88.1414 83.948 88.5534 83.868 89.0254 83.868C89.4654 83.868 89.8694 83.936 90.2374 84.072C90.6134 84.2 90.9254 84.388 91.1734 84.636L90.8254 85.308C90.5854 85.076 90.3094 84.904 89.9974 84.792C89.6934 84.672 89.3774 84.612 89.0494 84.612C88.5774 84.612 88.2214 84.708 87.9814 84.9C87.7494 85.084 87.6334 85.328 87.6334 85.632C87.6334 85.864 87.7054 86.056 87.8494 86.208C88.0014 86.352 88.2334 86.46 88.5454 86.532L89.6614 86.76C90.2054 86.88 90.6094 87.068 90.8734 87.324C91.1454 87.572 91.2814 87.908 91.2814 88.332C91.2814 88.692 91.1814 89.008 90.9814 89.28C90.7814 89.544 90.5014 89.748 90.1414 89.892C89.7894 90.036 89.3734 90.108 88.8934 90.108ZM95.5185 90.108C94.5745 90.108 93.8305 89.836 93.2865 89.292C92.7425 88.74 92.4705 87.976 92.4705 87C92.4705 86.368 92.5905 85.82 92.8305 85.356C93.0705 84.884 93.4065 84.52 93.8385 84.264C94.2705 84 94.7665 83.868 95.3265 83.868C95.8785 83.868 96.3425 83.984 96.7185 84.216C97.0945 84.448 97.3825 84.78 97.5825 85.212C97.7825 85.636 97.8825 86.14 97.8825 86.724V87.084H93.2145V86.472H97.2465L97.0425 86.628C97.0425 85.988 96.8985 85.488 96.6105 85.128C96.3225 84.768 95.8945 84.588 95.3265 84.588C94.7265 84.588 94.2585 84.8 93.9225 85.224C93.5865 85.64 93.4185 86.204 93.4185 86.916V87.024C93.4185 87.776 93.6025 88.348 93.9705 88.74C94.3465 89.124 94.8705 89.316 95.5425 89.316C95.9025 89.316 96.2385 89.264 96.5505 89.16C96.8705 89.048 97.1745 88.868 97.4625 88.62L97.7985 89.304C97.5345 89.56 97.1985 89.76 96.7905 89.904C96.3905 90.04 95.9665 90.108 95.5185 90.108ZM102.499 90V85.368C102.499 85.144 102.487 84.916 102.463 84.684C102.447 84.444 102.427 84.208 102.403 83.976H103.339L103.459 85.296H103.315C103.475 84.84 103.727 84.488 104.071 84.24C104.423 83.992 104.847 83.868 105.343 83.868C105.847 83.868 106.255 83.988 106.567 84.228C106.887 84.468 107.103 84.84 107.215 85.344H107.035C107.187 84.888 107.455 84.528 107.839 84.264C108.223 84 108.671 83.868 109.183 83.868C109.847 83.868 110.347 84.06 110.683 84.444C111.019 84.82 111.187 85.416 111.187 86.232V90H110.215V86.292C110.215 85.724 110.115 85.312 109.915 85.056C109.715 84.792 109.395 84.66 108.955 84.66C108.451 84.66 108.051 84.836 107.755 85.188C107.467 85.532 107.323 85.996 107.323 86.58V90H106.351V86.292C106.351 85.724 106.251 85.312 106.051 85.056C105.851 84.792 105.531 84.66 105.091 84.66C104.587 84.66 104.191 84.836 103.903 85.188C103.615 85.532 103.471 85.996 103.471 86.58V90H102.499ZM115.326 90.108C114.79 90.108 114.322 89.984 113.922 89.736C113.522 89.48 113.21 89.12 112.986 88.656C112.77 88.192 112.662 87.636 112.662 86.988C112.662 86.332 112.77 85.772 112.986 85.308C113.21 84.844 113.522 84.488 113.922 84.24C114.322 83.992 114.79 83.868 115.326 83.868C115.87 83.868 116.338 84.008 116.73 84.288C117.13 84.56 117.394 84.932 117.522 85.404H117.378L117.51 83.976H118.446C118.422 84.208 118.398 84.444 118.374 84.684C118.358 84.916 118.35 85.144 118.35 85.368V90H117.378V88.584H117.51C117.382 89.056 117.118 89.428 116.718 89.7C116.318 89.972 115.854 90.108 115.326 90.108ZM115.518 89.316C116.094 89.316 116.55 89.12 116.886 88.728C117.222 88.328 117.39 87.748 117.39 86.988C117.39 86.22 117.222 85.64 116.886 85.248C116.55 84.848 116.094 84.648 115.518 84.648C114.95 84.648 114.494 84.848 114.15 85.248C113.814 85.64 113.646 86.22 113.646 86.988C113.646 87.748 113.814 88.328 114.15 88.728C114.494 89.12 114.95 89.316 115.518 89.316ZM120.229 90V85.368C120.229 85.144 120.217 84.916 120.193 84.684C120.177 84.444 120.157 84.208 120.133 83.976H121.069L121.189 85.296H121.045C121.221 84.832 121.501 84.48 121.885 84.24C122.277 83.992 122.729 83.868 123.241 83.868C123.953 83.868 124.489 84.06 124.849 84.444C125.217 84.82 125.401 85.416 125.401 86.232V90H124.429V86.292C124.429 85.724 124.313 85.312 124.081 85.056C123.857 84.792 123.505 84.66 123.025 84.66C122.465 84.66 122.021 84.832 121.693 85.176C121.365 85.52 121.201 85.98 121.201 86.556V90H120.229ZM129.553 90.108C129.017 90.108 128.549 89.984 128.149 89.736C127.749 89.48 127.437 89.12 127.213 88.656C126.997 88.192 126.889 87.636 126.889 86.988C126.889 86.332 126.997 85.772 127.213 85.308C127.437 84.844 127.749 84.488 128.149 84.24C128.549 83.992 129.017 83.868 129.553 83.868C130.097 83.868 130.565 84.008 130.957 84.288C131.357 84.56 131.621 84.932 131.749 85.404H131.605L131.737 83.976H132.673C132.649 84.208 132.625 84.444 132.601 84.684C132.585 84.916 132.577 85.144 132.577 85.368V90H131.605V88.584H131.737C131.609 89.056 131.345 89.428 130.945 89.7C130.545 89.972 130.081 90.108 129.553 90.108ZM129.745 89.316C130.321 89.316 130.777 89.12 131.113 88.728C131.449 88.328 131.617 87.748 131.617 86.988C131.617 86.22 131.449 85.64 131.113 85.248C130.777 84.848 130.321 84.648 129.745 84.648C129.177 84.648 128.721 84.848 128.377 85.248C128.041 85.64 127.873 86.22 127.873 86.988C127.873 87.748 128.041 88.328 128.377 88.728C128.721 89.12 129.177 89.316 129.745 89.316ZM137.108 92.676C136.588 92.676 136.108 92.612 135.668 92.484C135.228 92.356 134.832 92.16 134.48 91.896L134.768 91.164C135.016 91.34 135.26 91.48 135.5 91.584C135.74 91.688 135.988 91.764 136.244 91.812C136.5 91.868 136.772 91.896 137.06 91.896C137.652 91.896 138.1 91.74 138.404 91.428C138.708 91.116 138.86 90.672 138.86 90.096V88.332H138.98C138.852 88.804 138.588 89.18 138.188 89.46C137.788 89.732 137.32 89.868 136.784 89.868C136.232 89.868 135.752 89.748 135.344 89.508C134.944 89.26 134.632 88.912 134.408 88.464C134.192 88.008 134.084 87.472 134.084 86.856C134.084 86.248 134.192 85.72 134.408 85.272C134.632 84.824 134.944 84.48 135.344 84.24C135.752 83.992 136.232 83.868 136.784 83.868C137.328 83.868 137.796 84.004 138.188 84.276C138.588 84.548 138.852 84.924 138.98 85.404L138.86 85.284L138.968 83.976H139.916C139.884 84.208 139.86 84.444 139.844 84.684C139.828 84.916 139.82 85.144 139.82 85.368V89.964C139.82 90.86 139.588 91.536 139.124 91.992C138.668 92.448 137.996 92.676 137.108 92.676ZM136.964 89.076C137.548 89.076 138.008 88.884 138.344 88.5C138.68 88.108 138.848 87.56 138.848 86.856C138.848 86.152 138.68 85.608 138.344 85.224C138.008 84.84 137.548 84.648 136.964 84.648C136.388 84.648 135.928 84.84 135.584 85.224C135.24 85.608 135.068 86.152 135.068 86.856C135.068 87.56 135.24 88.108 135.584 88.5C135.928 88.884 136.388 89.076 136.964 89.076ZM144.362 90.108C143.418 90.108 142.674 89.836 142.13 89.292C141.586 88.74 141.314 87.976 141.314 87C141.314 86.368 141.434 85.82 141.674 85.356C141.914 84.884 142.25 84.52 142.682 84.264C143.114 84 143.61 83.868 144.17 83.868C144.722 83.868 145.186 83.984 145.562 84.216C145.938 84.448 146.226 84.78 146.426 85.212C146.626 85.636 146.726 86.14 146.726 86.724V87.084H142.058V86.472H146.09L145.886 86.628C145.886 85.988 145.742 85.488 145.454 85.128C145.166 84.768 144.738 84.588 144.17 84.588C143.57 84.588 143.102 84.8 142.766 85.224C142.43 85.64 142.262 86.204 142.262 86.916V87.024C142.262 87.776 142.446 88.348 142.814 88.74C143.19 89.124 143.714 89.316 144.386 89.316C144.746 89.316 145.082 89.264 145.394 89.16C145.714 89.048 146.018 88.868 146.306 88.62L146.642 89.304C146.378 89.56 146.042 89.76 145.634 89.904C145.234 90.04 144.81 90.108 144.362 90.108ZM148.214 90V85.368C148.214 85.144 148.202 84.916 148.178 84.684C148.162 84.444 148.142 84.208 148.118 83.976H149.054L149.174 85.296H149.03C149.19 84.84 149.442 84.488 149.786 84.24C150.138 83.992 150.562 83.868 151.058 83.868C151.562 83.868 151.97 83.988 152.282 84.228C152.602 84.468 152.818 84.84 152.93 85.344H152.75C152.902 84.888 153.17 84.528 153.554 84.264C153.938 84 154.386 83.868 154.898 83.868C155.562 83.868 156.062 84.06 156.398 84.444C156.734 84.82 156.902 85.416 156.902 86.232V90H155.93V86.292C155.93 85.724 155.83 85.312 155.63 85.056C155.43 84.792 155.11 84.66 154.67 84.66C154.166 84.66 153.766 84.836 153.47 85.188C153.182 85.532 153.038 85.996 153.038 86.58V90H152.066V86.292C152.066 85.724 151.966 85.312 151.766 85.056C151.566 84.792 151.246 84.66 150.806 84.66C150.302 84.66 149.906 84.836 149.618 85.188C149.33 85.532 149.186 85.996 149.186 86.58V90H148.214ZM161.425 90.108C160.481 90.108 159.737 89.836 159.193 89.292C158.649 88.74 158.377 87.976 158.377 87C158.377 86.368 158.497 85.82 158.737 85.356C158.977 84.884 159.313 84.52 159.745 84.264C160.177 84 160.673 83.868 161.233 83.868C161.785 83.868 162.249 83.984 162.625 84.216C163.001 84.448 163.289 84.78 163.489 85.212C163.689 85.636 163.789 86.14 163.789 86.724V87.084H159.121V86.472H163.153L162.949 86.628C162.949 85.988 162.805 85.488 162.517 85.128C162.229 84.768 161.801 84.588 161.233 84.588C160.633 84.588 160.165 84.8 159.829 85.224C159.493 85.64 159.325 86.204 159.325 86.916V87.024C159.325 87.776 159.509 88.348 159.877 88.74C160.253 89.124 160.777 89.316 161.449 89.316C161.809 89.316 162.145 89.264 162.457 89.16C162.777 89.048 163.081 88.868 163.369 88.62L163.705 89.304C163.441 89.56 163.105 89.76 162.697 89.904C162.297 90.04 161.873 90.108 161.425 90.108ZM165.276 90V85.368C165.276 85.144 165.264 84.916 165.24 84.684C165.224 84.444 165.204 84.208 165.18 83.976H166.116L166.236 85.296H166.092C166.268 84.832 166.548 84.48 166.932 84.24C167.324 83.992 167.776 83.868 168.288 83.868C169 83.868 169.536 84.06 169.896 84.444C170.264 84.82 170.448 85.416 170.448 86.232V90H169.476V86.292C169.476 85.724 169.36 85.312 169.128 85.056C168.904 84.792 168.552 84.66 168.072 84.66C167.512 84.66 167.068 84.832 166.74 85.176C166.412 85.52 166.248 85.98 166.248 86.556V90H165.276ZM174.443 90.108C173.851 90.108 173.399 89.94 173.087 89.604C172.775 89.26 172.619 88.744 172.619 88.056V84.732H171.443V83.976H172.619V82.332L173.591 82.056V83.976H175.319V84.732H173.591V87.948C173.591 88.428 173.671 88.772 173.831 88.98C173.999 89.18 174.247 89.28 174.575 89.28C174.727 89.28 174.863 89.268 174.983 89.244C175.103 89.212 175.211 89.176 175.307 89.136V89.952C175.195 90 175.059 90.036 174.899 90.06C174.747 90.092 174.595 90.108 174.443 90.108ZM35.0042 103.932C34.6122 103.932 34.2482 103.84 33.9122 103.656C33.5762 103.464 33.3082 103.204 33.1082 102.876C32.9082 102.548 32.8082 102.184 32.8082 101.784C32.8082 101.416 32.9002 101.068 33.0842 100.74C33.2762 100.412 33.5362 100.148 33.8642 99.948C34.2002 99.74 34.5802 99.636 35.0042 99.636C35.3962 99.636 35.7562 99.732 36.0842 99.924C36.4122 100.108 36.6762 100.36 36.8762 100.68C37.0842 101 37.1882 101.368 37.1882 101.784C37.1882 102.176 37.0882 102.536 36.8882 102.864C36.6962 103.192 36.4322 103.452 36.0962 103.644C35.7682 103.836 35.4042 103.932 35.0042 103.932ZM47.816 105.108C47.136 105.108 46.528 105.02 45.992 104.844C45.456 104.668 44.988 104.416 44.588 104.088L44.948 103.296C45.228 103.504 45.508 103.68 45.788 103.824C46.076 103.96 46.384 104.064 46.712 104.136C47.04 104.2 47.408 104.232 47.816 104.232C48.528 104.232 49.056 104.1 49.4 103.836C49.744 103.572 49.916 103.22 49.916 102.78C49.916 102.404 49.796 102.116 49.556 101.916C49.316 101.716 48.896 101.556 48.296 101.436L47.036 101.184C46.26 101.024 45.68 100.764 45.296 100.404C44.92 100.044 44.732 99.556 44.732 98.94C44.732 98.436 44.86 97.996 45.116 97.62C45.38 97.244 45.748 96.952 46.22 96.744C46.692 96.536 47.24 96.432 47.864 96.432C48.464 96.432 49.012 96.524 49.508 96.708C50.004 96.884 50.428 97.144 50.78 97.488L50.432 98.256C50.056 97.92 49.66 97.68 49.244 97.536C48.836 97.384 48.372 97.308 47.852 97.308C47.196 97.308 46.676 97.452 46.292 97.74C45.916 98.02 45.728 98.404 45.728 98.892C45.728 99.284 45.848 99.592 46.088 99.816C46.328 100.032 46.724 100.196 47.276 100.308L48.548 100.56C49.364 100.728 49.964 100.98 50.348 101.316C50.732 101.652 50.924 102.124 50.924 102.732C50.924 103.196 50.796 103.608 50.54 103.968C50.292 104.328 49.936 104.608 49.472 104.808C49.008 105.008 48.456 105.108 47.816 105.108ZM54.8966 105.108C54.3206 105.108 53.8166 104.984 53.3846 104.736C52.9606 104.48 52.6326 104.12 52.4006 103.656C52.1686 103.184 52.0526 102.628 52.0526 101.988C52.0526 101.34 52.1686 100.784 52.4006 100.32C52.6326 99.856 52.9606 99.5 53.3846 99.252C53.8166 98.996 54.3206 98.868 54.8966 98.868C55.4806 98.868 55.9846 98.996 56.4086 99.252C56.8406 99.5 57.1726 99.856 57.4046 100.32C57.6446 100.784 57.7646 101.34 57.7646 101.988C57.7646 102.628 57.6446 103.184 57.4046 103.656C57.1726 104.12 56.8406 104.48 56.4086 104.736C55.9846 104.984 55.4806 105.108 54.8966 105.108ZM54.8966 104.316C55.4726 104.316 55.9286 104.12 56.2646 103.728C56.6006 103.328 56.7686 102.748 56.7686 101.988C56.7686 101.22 56.5966 100.64 56.2526 100.248C55.9166 99.848 55.4646 99.648 54.8966 99.648C54.3286 99.648 53.8766 99.848 53.5406 100.248C53.2046 100.64 53.0366 101.22 53.0366 101.988C53.0366 102.748 53.2046 103.328 53.5406 103.728C53.8766 104.12 54.3286 104.316 54.8966 104.316ZM59.5334 105V99.732H58.3574V98.976H59.7974L59.5334 99.228V98.22C59.5334 97.54 59.7054 97.02 60.0494 96.66C60.3934 96.3 60.8854 96.12 61.5254 96.12C61.6854 96.12 61.8494 96.136 62.0174 96.168C62.1934 96.192 62.3374 96.228 62.4494 96.276V97.08C62.3534 97.04 62.2334 97.008 62.0894 96.984C61.9534 96.952 61.8134 96.936 61.6694 96.936C61.4214 96.936 61.2094 96.988 61.0334 97.092C60.8574 97.188 60.7254 97.336 60.6374 97.536C60.5494 97.736 60.5054 97.992 60.5054 98.304V99.18L60.3494 98.976H62.1854V99.732H60.5054V105H59.5334ZM65.1309 105.108C64.5389 105.108 64.0869 104.94 63.7749 104.604C63.4629 104.26 63.3069 103.744 63.3069 103.056V99.732H62.1309V98.976H63.3069V97.332L64.2789 97.056V98.976H66.0069V99.732H64.2789V102.948C64.2789 103.428 64.3589 103.772 64.5189 103.98C64.6869 104.18 64.9349 104.28 65.2629 104.28C65.4149 104.28 65.5509 104.268 65.6709 104.244C65.7909 104.212 65.8989 104.176 65.9949 104.136V104.952C65.8829 105 65.7469 105.036 65.5869 105.06C65.4349 105.092 65.2829 105.108 65.1309 105.108ZM68.8685 105L66.6365 98.976H67.6685L69.5285 104.28H69.2165L71.1365 98.976H71.9765L73.8605 104.28H73.5605L75.4325 98.976H76.4165L74.1725 105H73.2365L71.2925 99.612H71.7725L69.8165 105H68.8685ZM79.865 105.108C79.329 105.108 78.861 104.984 78.461 104.736C78.061 104.48 77.749 104.12 77.525 103.656C77.309 103.192 77.201 102.636 77.201 101.988C77.201 101.332 77.309 100.772 77.525 100.308C77.749 99.844 78.061 99.488 78.461 99.24C78.861 98.992 79.329 98.868 79.865 98.868C80.409 98.868 80.877 99.008 81.269 99.288C81.669 99.56 81.933 99.932 82.061 100.404H81.917L82.049 98.976H82.985C82.961 99.208 82.937 99.444 82.913 99.684C82.897 99.916 82.889 100.144 82.889 100.368V105H81.917V103.584H82.049C81.921 104.056 81.657 104.428 81.257 104.7C80.857 104.972 80.393 105.108 79.865 105.108ZM80.057 104.316C80.633 104.316 81.089 104.12 81.425 103.728C81.761 103.328 81.929 102.748 81.929 101.988C81.929 101.22 81.761 100.64 81.425 100.248C81.089 99.848 80.633 99.648 80.057 99.648C79.489 99.648 79.033 99.848 78.689 100.248C78.353 100.64 78.185 101.22 78.185 101.988C78.185 102.748 78.353 103.328 78.689 103.728C79.033 104.12 79.489 104.316 80.057 104.316ZM84.7443 105V100.428C84.7443 100.188 84.7363 99.944 84.7203 99.696C84.7123 99.448 84.6963 99.208 84.6723 98.976H85.6083L85.7283 100.44L85.5603 100.452C85.6403 100.092 85.7803 99.796 85.9803 99.564C86.1803 99.332 86.4163 99.16 86.6883 99.048C86.9603 98.928 87.2443 98.868 87.5403 98.868C87.6603 98.868 87.7643 98.872 87.8523 98.88C87.9483 98.888 88.0363 98.908 88.1163 98.94L88.1043 99.804C87.9843 99.764 87.8723 99.74 87.7683 99.732C87.6723 99.716 87.5603 99.708 87.4323 99.708C87.0803 99.708 86.7723 99.792 86.5083 99.96C86.2523 100.128 86.0563 100.344 85.9203 100.608C85.7923 100.872 85.7283 101.152 85.7283 101.448V105H84.7443ZM91.7334 105.108C90.7894 105.108 90.0454 104.836 89.5014 104.292C88.9574 103.74 88.6854 102.976 88.6854 102C88.6854 101.368 88.8054 100.82 89.0454 100.356C89.2854 99.884 89.6214 99.52 90.0534 99.264C90.4854 99 90.9814 98.868 91.5414 98.868C92.0934 98.868 92.5574 98.984 92.9334 99.216C93.3094 99.448 93.5974 99.78 93.7974 100.212C93.9974 100.636 94.0974 101.14 94.0974 101.724V102.084H89.4294V101.472H93.4614L93.2574 101.628C93.2574 100.988 93.1134 100.488 92.8254 100.128C92.5374 99.768 92.1094 99.588 91.5414 99.588C90.9414 99.588 90.4734 99.8 90.1374 100.224C89.8014 100.64 89.6334 101.204 89.6334 101.916V102.024C89.6334 102.776 89.8174 103.348 90.1854 103.74C90.5614 104.124 91.0854 104.316 91.7574 104.316C92.1174 104.316 92.4534 104.264 92.7654 104.16C93.0854 104.048 93.3894 103.868 93.6774 103.62L94.0134 104.304C93.7494 104.56 93.4134 104.76 93.0054 104.904C92.6054 105.04 92.1814 105.108 91.7334 105.108ZM98.6896 105V100.428C98.6896 100.188 98.6816 99.944 98.6656 99.696C98.6576 99.448 98.6416 99.208 98.6176 98.976H99.5536L99.6736 100.44L99.5056 100.452C99.5856 100.092 99.7256 99.796 99.9256 99.564C100.126 99.332 100.362 99.16 100.634 99.048C100.906 98.928 101.19 98.868 101.486 98.868C101.606 98.868 101.71 98.872 101.798 98.88C101.894 98.888 101.982 98.908 102.062 98.94L102.05 99.804C101.93 99.764 101.818 99.74 101.714 99.732C101.618 99.716 101.506 99.708 101.378 99.708C101.026 99.708 100.718 99.792 100.454 99.96C100.198 100.128 100.002 100.344 99.8656 100.608C99.7376 100.872 99.6736 101.152 99.6736 101.448V105H98.6896ZM105.679 105.108C104.735 105.108 103.991 104.836 103.447 104.292C102.903 103.74 102.631 102.976 102.631 102C102.631 101.368 102.751 100.82 102.991 100.356C103.231 99.884 103.567 99.52 103.999 99.264C104.431 99 104.927 98.868 105.487 98.868C106.039 98.868 106.503 98.984 106.879 99.216C107.255 99.448 107.543 99.78 107.743 100.212C107.943 100.636 108.043 101.14 108.043 101.724V102.084H103.375V101.472H107.407L107.203 101.628C107.203 100.988 107.059 100.488 106.771 100.128C106.483 99.768 106.055 99.588 105.487 99.588C104.887 99.588 104.419 99.8 104.083 100.224C103.747 100.64 103.579 101.204 103.579 101.916V102.024C103.579 102.776 103.763 103.348 104.131 103.74C104.507 104.124 105.031 104.316 105.703 104.316C106.063 104.316 106.399 104.264 106.711 104.16C107.031 104.048 107.335 103.868 107.623 103.62L107.959 104.304C107.695 104.56 107.359 104.76 106.951 104.904C106.551 105.04 106.127 105.108 105.679 105.108ZM111.236 105L108.656 98.976H109.712L111.872 104.28H111.548L113.732 98.976H114.74L112.16 105H111.236ZM118.429 105.108C117.485 105.108 116.741 104.836 116.197 104.292C115.653 103.74 115.381 102.976 115.381 102C115.381 101.368 115.501 100.82 115.741 100.356C115.981 99.884 116.317 99.52 116.749 99.264C117.181 99 117.677 98.868 118.237 98.868C118.789 98.868 119.253 98.984 119.629 99.216C120.005 99.448 120.293 99.78 120.493 100.212C120.693 100.636 120.793 101.14 120.793 101.724V102.084H116.125V101.472H120.157L119.953 101.628C119.953 100.988 119.809 100.488 119.521 100.128C119.233 99.768 118.805 99.588 118.237 99.588C117.637 99.588 117.169 99.8 116.833 100.224C116.497 100.64 116.329 101.204 116.329 101.916V102.024C116.329 102.776 116.513 103.348 116.881 103.74C117.257 104.124 117.781 104.316 118.453 104.316C118.813 104.316 119.149 104.264 119.461 104.16C119.781 104.048 120.085 103.868 120.373 103.62L120.709 104.304C120.445 104.56 120.109 104.76 119.701 104.904C119.301 105.04 118.877 105.108 118.429 105.108ZM122.256 105V100.428C122.256 100.188 122.248 99.944 122.232 99.696C122.224 99.448 122.208 99.208 122.184 98.976H123.12L123.24 100.44L123.072 100.452C123.152 100.092 123.292 99.796 123.492 99.564C123.692 99.332 123.928 99.16 124.2 99.048C124.472 98.928 124.756 98.868 125.052 98.868C125.172 98.868 125.276 98.872 125.364 98.88C125.46 98.888 125.548 98.908 125.628 98.94L125.616 99.804C125.496 99.764 125.384 99.74 125.28 99.732C125.184 99.716 125.072 99.708 124.944 99.708C124.592 99.708 124.284 99.792 124.02 99.96C123.764 100.128 123.568 100.344 123.432 100.608C123.304 100.872 123.24 101.152 123.24 101.448V105H122.256ZM128.585 105.108C128.105 105.108 127.657 105.044 127.241 104.916C126.825 104.78 126.481 104.592 126.209 104.352L126.545 103.668C126.841 103.9 127.161 104.072 127.505 104.184C127.857 104.296 128.221 104.352 128.597 104.352C129.077 104.352 129.437 104.268 129.677 104.1C129.925 103.924 130.049 103.684 130.049 103.38C130.049 103.148 129.969 102.964 129.809 102.828C129.657 102.684 129.405 102.572 129.053 102.492L127.937 102.264C127.425 102.152 127.041 101.964 126.785 101.7C126.529 101.428 126.401 101.084 126.401 100.668C126.401 100.316 126.493 100.008 126.677 99.744C126.861 99.472 127.129 99.26 127.481 99.108C127.833 98.948 128.245 98.868 128.717 98.868C129.157 98.868 129.561 98.936 129.929 99.072C130.305 99.2 130.617 99.388 130.865 99.636L130.517 100.308C130.277 100.076 130.001 99.904 129.689 99.792C129.385 99.672 129.069 99.612 128.741 99.612C128.269 99.612 127.913 99.708 127.673 99.9C127.441 100.084 127.325 100.328 127.325 100.632C127.325 100.864 127.397 101.056 127.541 101.208C127.693 101.352 127.925 101.46 128.237 101.532L129.353 101.76C129.897 101.88 130.301 102.068 130.565 102.324C130.837 102.572 130.973 102.908 130.973 103.332C130.973 103.692 130.873 104.008 130.673 104.28C130.473 104.544 130.193 104.748 129.833 104.892C129.481 105.036 129.065 105.108 128.585 105.108ZM135.21 105.108C134.266 105.108 133.522 104.836 132.978 104.292C132.434 103.74 132.162 102.976 132.162 102C132.162 101.368 132.282 100.82 132.522 100.356C132.762 99.884 133.098 99.52 133.53 99.264C133.962 99 134.458 98.868 135.018 98.868C135.57 98.868 136.034 98.984 136.41 99.216C136.786 99.448 137.074 99.78 137.274 100.212C137.474 100.636 137.574 101.14 137.574 101.724V102.084H132.906V101.472H136.938L136.734 101.628C136.734 100.988 136.59 100.488 136.302 100.128C136.014 99.768 135.586 99.588 135.018 99.588C134.418 99.588 133.95 99.8 133.614 100.224C133.278 100.64 133.11 101.204 133.11 101.916V102.024C133.11 102.776 133.294 103.348 133.662 103.74C134.038 104.124 134.562 104.316 135.234 104.316C135.594 104.316 135.93 104.264 136.242 104.16C136.562 104.048 136.866 103.868 137.154 103.62L137.49 104.304C137.226 104.56 136.89 104.76 136.482 104.904C136.082 105.04 135.658 105.108 135.21 105.108ZM144.866 105.108C143.922 105.108 143.178 104.836 142.634 104.292C142.09 103.74 141.818 102.976 141.818 102C141.818 101.368 141.938 100.82 142.178 100.356C142.418 99.884 142.754 99.52 143.186 99.264C143.618 99 144.114 98.868 144.674 98.868C145.226 98.868 145.69 98.984 146.066 99.216C146.442 99.448 146.73 99.78 146.93 100.212C147.13 100.636 147.23 101.14 147.23 101.724V102.084H142.562V101.472H146.594L146.39 101.628C146.39 100.988 146.246 100.488 145.958 100.128C145.67 99.768 145.242 99.588 144.674 99.588C144.074 99.588 143.606 99.8 143.27 100.224C142.934 100.64 142.766 101.204 142.766 101.916V102.024C142.766 102.776 142.95 103.348 143.318 103.74C143.694 104.124 144.218 104.316 144.89 104.316C145.25 104.316 145.586 104.264 145.898 104.16C146.218 104.048 146.522 103.868 146.81 103.62L147.146 104.304C146.882 104.56 146.546 104.76 146.138 104.904C145.738 105.04 145.314 105.108 144.866 105.108ZM148.718 105V100.368C148.718 100.144 148.706 99.916 148.682 99.684C148.666 99.444 148.646 99.208 148.622 98.976H149.558L149.678 100.296H149.534C149.71 99.832 149.99 99.48 150.374 99.24C150.766 98.992 151.218 98.868 151.73 98.868C152.442 98.868 152.978 99.06 153.338 99.444C153.706 99.82 153.89 100.416 153.89 101.232V105H152.918V101.292C152.918 100.724 152.802 100.312 152.57 100.056C152.346 99.792 151.994 99.66 151.514 99.66C150.954 99.66 150.51 99.832 150.182 100.176C149.854 100.52 149.69 100.98 149.69 101.556V105H148.718ZM158.401 107.676C157.881 107.676 157.401 107.612 156.961 107.484C156.521 107.356 156.125 107.16 155.773 106.896L156.061 106.164C156.309 106.34 156.553 106.48 156.793 106.584C157.033 106.688 157.281 106.764 157.537 106.812C157.793 106.868 158.065 106.896 158.353 106.896C158.945 106.896 159.393 106.74 159.697 106.428C160.001 106.116 160.153 105.672 160.153 105.096V103.332H160.273C160.145 103.804 159.881 104.18 159.481 104.46C159.081 104.732 158.613 104.868 158.077 104.868C157.525 104.868 157.045 104.748 156.637 104.508C156.237 104.26 155.925 103.912 155.701 103.464C155.485 103.008 155.377 102.472 155.377 101.856C155.377 101.248 155.485 100.72 155.701 100.272C155.925 99.824 156.237 99.48 156.637 99.24C157.045 98.992 157.525 98.868 158.077 98.868C158.621 98.868 159.089 99.004 159.481 99.276C159.881 99.548 160.145 99.924 160.273 100.404L160.153 100.284L160.261 98.976H161.209C161.177 99.208 161.153 99.444 161.137 99.684C161.121 99.916 161.113 100.144 161.113 100.368V104.964C161.113 105.86 160.881 106.536 160.417 106.992C159.961 107.448 159.289 107.676 158.401 107.676ZM158.257 104.076C158.841 104.076 159.301 103.884 159.637 103.5C159.973 103.108 160.141 102.56 160.141 101.856C160.141 101.152 159.973 100.608 159.637 100.224C159.301 99.84 158.841 99.648 158.257 99.648C157.681 99.648 157.221 99.84 156.877 100.224C156.533 100.608 156.361 101.152 156.361 101.856C156.361 102.56 156.533 103.108 156.877 103.5C157.221 103.884 157.681 104.076 158.257 104.076ZM162.979 105V98.976H163.951V105H162.979ZM162.859 97.608V96.516H164.059V97.608H162.859ZM165.839 105V100.368C165.839 100.144 165.827 99.916 165.803 99.684C165.787 99.444 165.767 99.208 165.743 98.976H166.679L166.799 100.296H166.655C166.831 99.832 167.111 99.48 167.495 99.24C167.887 98.992 168.339 98.868 168.851 98.868C169.563 98.868 170.099 99.06 170.459 99.444C170.827 99.82 171.011 100.416 171.011 101.232V105H170.039V101.292C170.039 100.724 169.923 100.312 169.691 100.056C169.467 99.792 169.115 99.66 168.635 99.66C168.075 99.66 167.631 99.832 167.303 100.176C166.975 100.52 166.811 100.98 166.811 101.556V105H165.839ZM175.546 105.108C174.602 105.108 173.858 104.836 173.314 104.292C172.77 103.74 172.498 102.976 172.498 102C172.498 101.368 172.618 100.82 172.858 100.356C173.098 99.884 173.434 99.52 173.866 99.264C174.298 99 174.794 98.868 175.354 98.868C175.906 98.868 176.37 98.984 176.746 99.216C177.122 99.448 177.41 99.78 177.61 100.212C177.81 100.636 177.91 101.14 177.91 101.724V102.084H173.242V101.472H177.274L177.07 101.628C177.07 100.988 176.926 100.488 176.638 100.128C176.35 99.768 175.922 99.588 175.354 99.588C174.754 99.588 174.286 99.8 173.95 100.224C173.614 100.64 173.446 101.204 173.446 101.916V102.024C173.446 102.776 173.63 103.348 173.998 103.74C174.374 104.124 174.898 104.316 175.57 104.316C175.93 104.316 176.266 104.264 176.578 104.16C176.898 104.048 177.202 103.868 177.49 103.62L177.826 104.304C177.562 104.56 177.226 104.76 176.818 104.904C176.418 105.04 175.994 105.108 175.546 105.108ZM182.073 105.108C181.129 105.108 180.385 104.836 179.841 104.292C179.297 103.74 179.025 102.976 179.025 102C179.025 101.368 179.145 100.82 179.385 100.356C179.625 99.884 179.961 99.52 180.393 99.264C180.825 99 181.321 98.868 181.881 98.868C182.433 98.868 182.897 98.984 183.273 99.216C183.649 99.448 183.937 99.78 184.137 100.212C184.337 100.636 184.437 101.14 184.437 101.724V102.084H179.769V101.472H183.801L183.597 101.628C183.597 100.988 183.453 100.488 183.165 100.128C182.877 99.768 182.449 99.588 181.881 99.588C181.281 99.588 180.813 99.8 180.477 100.224C180.141 100.64 179.973 101.204 179.973 101.916V102.024C179.973 102.776 180.157 103.348 180.525 103.74C180.901 104.124 181.425 104.316 182.097 104.316C182.457 104.316 182.793 104.264 183.105 104.16C183.425 104.048 183.729 103.868 184.017 103.62L184.353 104.304C184.089 104.56 183.753 104.76 183.345 104.904C182.945 105.04 182.521 105.108 182.073 105.108ZM185.901 105V100.428C185.901 100.188 185.893 99.944 185.877 99.696C185.869 99.448 185.853 99.208 185.829 98.976H186.765L186.885 100.44L186.717 100.452C186.797 100.092 186.937 99.796 187.137 99.564C187.337 99.332 187.573 99.16 187.845 99.048C188.117 98.928 188.401 98.868 188.697 98.868C188.817 98.868 188.921 98.872 189.009 98.88C189.105 98.888 189.193 98.908 189.273 98.94L189.261 99.804C189.141 99.764 189.029 99.74 188.925 99.732C188.829 99.716 188.717 99.708 188.589 99.708C188.237 99.708 187.929 99.792 187.665 99.96C187.409 100.128 187.213 100.344 187.077 100.608C186.949 100.872 186.885 101.152 186.885 101.448V105H185.901ZM190.284 105V98.976H191.256V105H190.284ZM190.164 97.608V96.516H191.364V97.608H190.164ZM193.143 105V100.368C193.143 100.144 193.131 99.916 193.107 99.684C193.091 99.444 193.071 99.208 193.047 98.976H193.983L194.103 100.296H193.959C194.135 99.832 194.415 99.48 194.799 99.24C195.191 98.992 195.643 98.868 196.155 98.868C196.867 98.868 197.403 99.06 197.763 99.444C198.131 99.82 198.315 100.416 198.315 101.232V105H197.343V101.292C197.343 100.724 197.227 100.312 196.995 100.056C196.771 99.792 196.419 99.66 195.939 99.66C195.379 99.66 194.935 99.832 194.607 100.176C194.279 100.52 194.115 100.98 194.115 101.556V105H193.143ZM202.827 107.676C202.307 107.676 201.827 107.612 201.387 107.484C200.947 107.356 200.551 107.16 200.199 106.896L200.487 106.164C200.735 106.34 200.979 106.48 201.219 106.584C201.459 106.688 201.707 106.764 201.963 106.812C202.219 106.868 202.491 106.896 202.779 106.896C203.371 106.896 203.819 106.74 204.123 106.428C204.427 106.116 204.579 105.672 204.579 105.096V103.332H204.699C204.571 103.804 204.307 104.18 203.907 104.46C203.507 104.732 203.039 104.868 202.503 104.868C201.951 104.868 201.471 104.748 201.063 104.508C200.663 104.26 200.351 103.912 200.127 103.464C199.911 103.008 199.803 102.472 199.803 101.856C199.803 101.248 199.911 100.72 200.127 100.272C200.351 99.824 200.663 99.48 201.063 99.24C201.471 98.992 201.951 98.868 202.503 98.868C203.047 98.868 203.515 99.004 203.907 99.276C204.307 99.548 204.571 99.924 204.699 100.404L204.579 100.284L204.687 98.976H205.635C205.603 99.208 205.579 99.444 205.563 99.684C205.547 99.916 205.539 100.144 205.539 100.368V104.964C205.539 105.86 205.307 106.536 204.843 106.992C204.387 107.448 203.715 107.676 202.827 107.676ZM202.683 104.076C203.267 104.076 203.727 103.884 204.063 103.5C204.399 103.108 204.567 102.56 204.567 101.856C204.567 101.152 204.399 100.608 204.063 100.224C203.727 99.84 203.267 99.648 202.683 99.648C202.107 99.648 201.647 99.84 201.303 100.224C200.959 100.608 200.787 101.152 200.787 101.856C200.787 102.56 200.959 103.108 201.303 103.5C201.647 103.884 202.107 104.076 202.683 104.076Z" fill="white"/>
</svg>
