<svg width="450" height="301" viewBox="0 0 450 301" fill="none" xmlns="http://www.w3.org/2000/svg">
<mask id="path-1-inside-1_2_2" fill="white">
<path d="M25 12C25 10.3431 26.3431 9 28 9H422C423.657 9 425 10.3431 425 12V133C425 134.657 423.657 136 422 136H28C26.3431 136 25 134.657 25 133V12Z"/>
</mask>
<path d="M25 12C25 10.3431 26.3431 9 28 9H422C423.657 9 425 10.3431 425 12V133C425 134.657 423.657 136 422 136H28C26.3431 136 25 134.657 25 133V12Z" fill="#1A1C1F"/>
<path d="M25 9H425H25ZM425 136H25H425ZM28 136C25.2386 136 23 133.761 23 131V14C23 11.2386 25.2386 9 28 9C27.4477 9 27 10.3431 27 12V133C27 134.657 27.4477 136 28 136ZM425 9V136V9Z" fill="#319274" mask="url(#path-1-inside-1_2_2)"/>
<path d="M56.848 37L51.776 25.72H54.464L58.32 34.744H57.536L61.392 25.72H63.984L58.912 37H56.848ZM67.8064 37.176C66.3984 37.176 65.2997 36.7973 64.5104 36.04C63.721 35.2827 63.3264 34.2533 63.3264 32.952C63.3264 32.1093 63.4917 31.3733 63.8224 30.744C64.1637 30.1147 64.633 29.624 65.2304 29.272C65.8384 28.9093 66.5477 28.728 67.3584 28.728C68.1584 28.728 68.825 28.8987 69.3584 29.24C69.9024 29.5813 70.3077 30.0613 70.5744 30.68C70.8517 31.288 70.9904 31.9973 70.9904 32.808V33.368H65.3104V32.168H69.2304L68.9584 32.392C68.9584 31.72 68.8197 31.2133 68.5424 30.872C68.2757 30.52 67.8864 30.344 67.3744 30.344C66.809 30.344 66.3717 30.552 66.0624 30.968C65.7637 31.384 65.6144 31.9813 65.6144 32.76V33.016C65.6144 33.8053 65.8064 34.392 66.1904 34.776C66.585 35.16 67.1504 35.352 67.8864 35.352C68.3237 35.352 68.7344 35.2987 69.1184 35.192C69.513 35.0747 69.8864 34.8933 70.2384 34.648L70.9104 36.248C70.505 36.5467 70.0357 36.776 69.5024 36.936C68.9797 37.096 68.4144 37.176 67.8064 37.176ZM75.5153 37.176C74.7899 37.176 74.1286 37.096 73.5312 36.936C72.9339 36.776 72.4273 36.552 72.0113 36.264L72.6353 34.664C73.0513 34.92 73.5099 35.1227 74.0113 35.272C74.5233 35.4213 75.0299 35.496 75.5312 35.496C76.0006 35.496 76.3473 35.4213 76.5713 35.272C76.7953 35.1227 76.9073 34.92 76.9073 34.664C76.9073 34.4507 76.8326 34.2853 76.6833 34.168C76.5446 34.0507 76.3259 33.9653 76.0273 33.912L74.3793 33.608C73.6859 33.4693 73.1579 33.2133 72.7953 32.84C72.4326 32.4667 72.2513 31.9813 72.2513 31.384C72.2513 30.8613 72.3899 30.4027 72.6673 30.008C72.9553 29.6027 73.3659 29.288 73.8993 29.064C74.4326 28.84 75.0566 28.728 75.7713 28.728C76.3793 28.728 76.9553 28.8027 77.4993 28.952C78.0433 29.1013 78.5073 29.3307 78.8913 29.64L78.2353 31.192C77.9046 30.9467 77.5206 30.7493 77.0833 30.6C76.6566 30.4507 76.2459 30.376 75.8513 30.376C75.3393 30.376 74.9713 30.4613 74.7473 30.632C74.5233 30.792 74.4113 31 74.4113 31.256C74.4113 31.448 74.4753 31.608 74.6033 31.736C74.7419 31.864 74.9499 31.96 75.2273 32.024L76.8913 32.328C77.6059 32.456 78.1499 32.696 78.5233 33.048C78.8966 33.4 79.0833 33.8853 79.0833 34.504C79.0833 35.0693 78.9339 35.5493 78.6353 35.944C78.3366 36.3387 77.9153 36.6427 77.3713 36.856C76.8379 37.0693 76.2193 37.176 75.5153 37.176ZM84.2996 37.176C83.2436 37.176 82.449 36.9147 81.9156 36.392C81.3823 35.8587 81.1156 35.064 81.1156 34.008V30.696H79.5796V28.888H81.1156V26.904L83.5316 26.312V28.888H85.6116V30.696H83.5316V33.88C83.5316 34.392 83.6383 34.744 83.8516 34.936C84.065 35.128 84.337 35.224 84.6676 35.224C84.8703 35.224 85.0356 35.2133 85.1636 35.192C85.3023 35.16 85.4463 35.1173 85.5956 35.064V36.936C85.393 37.0213 85.1796 37.08 84.9556 37.112C84.7316 37.1547 84.513 37.176 84.2996 37.176ZM90.8533 37.176C89.4453 37.176 88.3466 36.7973 87.5573 36.04C86.7679 35.2827 86.3733 34.2533 86.3733 32.952C86.3733 32.1093 86.5386 31.3733 86.8693 30.744C87.2106 30.1147 87.6799 29.624 88.2773 29.272C88.8853 28.9093 89.5946 28.728 90.4053 28.728C91.2053 28.728 91.8719 28.8987 92.4053 29.24C92.9493 29.5813 93.3546 30.0613 93.6213 30.68C93.8986 31.288 94.0373 31.9973 94.0373 32.808V33.368H88.3573V32.168H92.2773L92.0053 32.392C92.0053 31.72 91.8666 31.2133 91.5893 30.872C91.3226 30.52 90.9333 30.344 90.4213 30.344C89.8559 30.344 89.4186 30.552 89.1093 30.968C88.8106 31.384 88.6613 31.9813 88.6613 32.76V33.016C88.6613 33.8053 88.8533 34.392 89.2373 34.776C89.6319 35.16 90.1973 35.352 90.9333 35.352C91.3706 35.352 91.7813 35.2987 92.1653 35.192C92.5599 35.0747 92.9333 34.8933 93.2853 34.648L93.9573 36.248C93.5519 36.5467 93.0826 36.776 92.5493 36.936C92.0266 37.096 91.4613 37.176 90.8533 37.176ZM95.5541 37V31.032C95.5541 30.68 95.5435 30.3227 95.5221 29.96C95.5115 29.5973 95.4848 29.24 95.4421 28.888H97.7621L98.0341 31.256H97.6661C97.7728 30.68 97.9435 30.2053 98.1781 29.832C98.4235 29.4587 98.7221 29.1813 99.0741 29C99.4368 28.8187 99.8475 28.728 100.306 28.728C100.509 28.728 100.669 28.7387 100.786 28.76C100.903 28.7707 101.021 28.7973 101.138 28.84L101.122 30.968C100.898 30.872 100.706 30.8133 100.546 30.792C100.397 30.76 100.205 30.744 99.9701 30.744C99.5221 30.744 99.1488 30.8293 98.8501 31C98.5621 31.1707 98.3435 31.4213 98.1941 31.752C98.0555 32.0827 97.9861 32.4827 97.9861 32.952V37H95.5541ZM102.148 37V28.888H104.564V37H102.148ZM102.052 27.56V25.304H104.644V27.56H102.052ZM109.691 37.176C108.987 37.176 108.368 37.0053 107.835 36.664C107.302 36.3227 106.886 35.8373 106.587 35.208C106.288 34.5787 106.139 33.8213 106.139 32.936C106.139 32.0613 106.288 31.3093 106.587 30.68C106.886 30.0507 107.302 29.5707 107.835 29.24C108.368 28.8987 108.987 28.728 109.691 28.728C110.342 28.728 110.923 28.888 111.435 29.208C111.958 29.5173 112.299 29.9387 112.459 30.472H112.283L112.475 28.888H114.795C114.763 29.24 114.731 29.5973 114.699 29.96C114.678 30.312 114.667 30.6587 114.667 31V37H112.267L112.251 35.48H112.443C112.272 35.992 111.931 36.4027 111.419 36.712C110.907 37.0213 110.331 37.176 109.691 37.176ZM110.427 35.352C110.982 35.352 111.43 35.1547 111.771 34.76C112.112 34.3653 112.283 33.7573 112.283 32.936C112.283 32.1147 112.112 31.512 111.771 31.128C111.43 30.744 110.982 30.552 110.427 30.552C109.872 30.552 109.424 30.744 109.083 31.128C108.742 31.512 108.571 32.1147 108.571 32.936C108.571 33.7573 108.736 34.3653 109.067 34.76C109.408 35.1547 109.862 35.352 110.427 35.352ZM121.324 37V25.72H123.82V37H121.324ZM125.945 37V31C125.945 30.6587 125.934 30.312 125.913 29.96C125.892 29.5973 125.86 29.24 125.817 28.888H128.137L128.313 30.392H128.121C128.388 29.8587 128.766 29.448 129.257 29.16C129.748 28.872 130.318 28.728 130.969 28.728C131.918 28.728 132.628 29.0053 133.097 29.56C133.577 30.104 133.817 30.952 133.817 32.104V37H131.401V32.216C131.401 31.6293 131.294 31.2133 131.081 30.968C130.868 30.7227 130.548 30.6 130.121 30.6C129.588 30.6 129.161 30.7707 128.841 31.112C128.521 31.4427 128.361 31.8907 128.361 32.456V37H125.945ZM139.662 37.176C138.798 37.176 138.04 37.0053 137.39 36.664C136.739 36.3227 136.238 35.832 135.886 35.192C135.534 34.552 135.358 33.7947 135.358 32.92C135.358 32.0347 135.534 31.2827 135.886 30.664C136.248 30.0347 136.75 29.5547 137.39 29.224C138.04 28.8933 138.798 28.728 139.662 28.728C140.206 28.728 140.734 28.808 141.246 28.968C141.768 29.128 142.195 29.352 142.526 29.64L141.822 31.304C141.555 31.0587 141.246 30.8773 140.894 30.76C140.552 30.632 140.222 30.568 139.902 30.568C139.251 30.568 138.744 30.7707 138.382 31.176C138.019 31.5813 137.838 32.168 137.838 32.936C137.838 33.704 138.019 34.2907 138.382 34.696C138.744 35.1013 139.251 35.304 139.902 35.304C140.211 35.304 140.536 35.2453 140.878 35.128C141.23 35.0107 141.544 34.8347 141.822 34.6L142.526 36.248C142.184 36.536 141.752 36.7653 141.23 36.936C140.718 37.096 140.195 37.176 139.662 37.176ZM143.847 37V34.44H146.439V37H143.847Z" fill="white"/>
<path d="M52.216 56L55.948 47.54H56.812L60.604 56H59.572L58.516 53.588L58.96 53.84H53.788L54.268 53.588L53.236 56H52.216ZM56.368 48.68L54.424 53.24L54.136 53.024H58.6L58.384 53.24L56.392 48.68H56.368ZM63.8962 56.108C63.1842 56.108 62.6442 55.912 62.2762 55.52C61.9162 55.128 61.7362 54.528 61.7362 53.72V49.976H62.7082V53.696C62.7082 54.248 62.8202 54.656 63.0442 54.92C63.2682 55.176 63.6162 55.304 64.0882 55.304C64.6162 55.304 65.0402 55.132 65.3602 54.788C65.6802 54.444 65.8402 53.984 65.8402 53.408V49.976H66.8122V56H65.8642V54.644H66.0202C65.8522 55.108 65.5802 55.468 65.2042 55.724C64.8362 55.98 64.4002 56.108 63.8962 56.108ZM71.35 58.676C70.83 58.676 70.35 58.612 69.91 58.484C69.47 58.356 69.074 58.16 68.722 57.896L69.01 57.164C69.258 57.34 69.502 57.48 69.742 57.584C69.982 57.688 70.23 57.764 70.486 57.812C70.742 57.868 71.014 57.896 71.302 57.896C71.894 57.896 72.342 57.74 72.646 57.428C72.95 57.116 73.102 56.672 73.102 56.096V54.332H73.222C73.094 54.804 72.83 55.18 72.43 55.46C72.03 55.732 71.562 55.868 71.026 55.868C70.474 55.868 69.994 55.748 69.586 55.508C69.186 55.26 68.874 54.912 68.65 54.464C68.434 54.008 68.326 53.472 68.326 52.856C68.326 52.248 68.434 51.72 68.65 51.272C68.874 50.824 69.186 50.48 69.586 50.24C69.994 49.992 70.474 49.868 71.026 49.868C71.57 49.868 72.038 50.004 72.43 50.276C72.83 50.548 73.094 50.924 73.222 51.404L73.102 51.284L73.21 49.976H74.158C74.126 50.208 74.102 50.444 74.086 50.684C74.07 50.916 74.062 51.144 74.062 51.368V55.964C74.062 56.86 73.83 57.536 73.366 57.992C72.91 58.448 72.238 58.676 71.35 58.676ZM71.206 55.076C71.79 55.076 72.25 54.884 72.586 54.5C72.922 54.108 73.09 53.56 73.09 52.856C73.09 52.152 72.922 51.608 72.586 51.224C72.25 50.84 71.79 50.648 71.206 50.648C70.63 50.648 70.17 50.84 69.826 51.224C69.482 51.608 69.31 52.152 69.31 52.856C69.31 53.56 69.482 54.108 69.826 54.5C70.17 54.884 70.63 55.076 71.206 55.076ZM79.1414 56V55.256L82.1414 52.124C82.5334 51.716 82.8254 51.328 83.0174 50.96C83.2174 50.584 83.3174 50.196 83.3174 49.796C83.3174 49.308 83.1654 48.94 82.8614 48.692C82.5574 48.436 82.1174 48.308 81.5414 48.308C81.0934 48.308 80.6774 48.388 80.2934 48.548C79.9174 48.7 79.5534 48.944 79.2014 49.28L78.8414 48.5C79.1614 48.18 79.5694 47.924 80.0654 47.732C80.5614 47.532 81.0854 47.432 81.6374 47.432C82.4934 47.432 83.1534 47.632 83.6174 48.032C84.0814 48.424 84.3134 48.984 84.3134 49.712C84.3134 50.248 84.1814 50.76 83.9174 51.248C83.6614 51.728 83.2854 52.224 82.7894 52.736L80.1374 55.424V55.148H84.6734V56H79.1414ZM88.9047 56.108C87.9447 56.108 87.2087 55.736 86.6967 54.992C86.1847 54.248 85.9287 53.172 85.9287 51.764C85.9287 50.348 86.1847 49.272 86.6967 48.536C87.2087 47.8 87.9447 47.432 88.9047 47.432C89.8727 47.432 90.6087 47.8 91.1127 48.536C91.6247 49.272 91.8807 50.344 91.8807 51.752C91.8807 53.168 91.6247 54.248 91.1127 54.992C90.6007 55.736 89.8647 56.108 88.9047 56.108ZM88.9047 55.244C89.5767 55.244 90.0767 54.96 90.4047 54.392C90.7327 53.824 90.8967 52.944 90.8967 51.752C90.8967 50.552 90.7327 49.676 90.4047 49.124C90.0767 48.564 89.5767 48.284 88.9047 48.284C88.2407 48.284 87.7407 48.564 87.4047 49.124C87.0767 49.684 86.9127 50.56 86.9127 51.752C86.9127 52.944 87.0767 53.824 87.4047 54.392C87.7407 54.96 88.2407 55.244 88.9047 55.244ZM93.532 56V55.256L96.532 52.124C96.924 51.716 97.216 51.328 97.408 50.96C97.608 50.584 97.708 50.196 97.708 49.796C97.708 49.308 97.556 48.94 97.252 48.692C96.948 48.436 96.508 48.308 95.932 48.308C95.484 48.308 95.068 48.388 94.684 48.548C94.308 48.7 93.944 48.944 93.592 49.28L93.232 48.5C93.552 48.18 93.96 47.924 94.456 47.732C94.952 47.532 95.476 47.432 96.028 47.432C96.884 47.432 97.544 47.632 98.008 48.032C98.472 48.424 98.704 48.984 98.704 49.712C98.704 50.248 98.572 50.76 98.308 51.248C98.052 51.728 97.676 52.224 97.18 52.736L94.528 55.424V55.148H99.064V56H93.532ZM101.219 56V55.148H103.211V48.392H103.739L101.411 49.844V48.848L103.487 47.54H104.207V55.148H106.079V56H101.219ZM110.884 53.108V52.304H114.304V53.108H110.884ZM119.337 56V47.54H122.781C123.669 47.54 124.353 47.756 124.833 48.188C125.313 48.612 125.553 49.204 125.553 49.964C125.553 50.708 125.313 51.3 124.833 51.74C124.353 52.172 123.669 52.388 122.781 52.388H120.333V56H119.337ZM120.333 51.56H122.685C123.301 51.56 123.765 51.42 124.077 51.14C124.397 50.86 124.557 50.468 124.557 49.964C124.557 49.452 124.397 49.056 124.077 48.776C123.765 48.496 123.301 48.356 122.685 48.356H120.333V51.56ZM126.904 56V51.428C126.904 51.188 126.896 50.944 126.88 50.696C126.872 50.448 126.856 50.208 126.832 49.976H127.768L127.888 51.44L127.72 51.452C127.8 51.092 127.94 50.796 128.14 50.564C128.34 50.332 128.576 50.16 128.848 50.048C129.12 49.928 129.404 49.868 129.7 49.868C129.82 49.868 129.924 49.872 130.012 49.88C130.108 49.888 130.196 49.908 130.276 49.94L130.264 50.804C130.144 50.764 130.032 50.74 129.928 50.732C129.832 50.716 129.72 50.708 129.592 50.708C129.24 50.708 128.932 50.792 128.668 50.96C128.412 51.128 128.216 51.344 128.08 51.608C127.952 51.872 127.888 52.152 127.888 52.448V56H126.904ZM133.894 56.108C132.95 56.108 132.206 55.836 131.662 55.292C131.118 54.74 130.846 53.976 130.846 53C130.846 52.368 130.966 51.82 131.206 51.356C131.446 50.884 131.782 50.52 132.214 50.264C132.646 50 133.142 49.868 133.702 49.868C134.254 49.868 134.718 49.984 135.094 50.216C135.47 50.448 135.758 50.78 135.958 51.212C136.158 51.636 136.258 52.14 136.258 52.724V53.084H131.59V52.472H135.622L135.418 52.628C135.418 51.988 135.274 51.488 134.986 51.128C134.698 50.768 134.27 50.588 133.702 50.588C133.102 50.588 132.634 50.8 132.298 51.224C131.962 51.64 131.794 52.204 131.794 52.916V53.024C131.794 53.776 131.978 54.348 132.346 54.74C132.722 55.124 133.246 55.316 133.918 55.316C134.278 55.316 134.614 55.264 134.926 55.16C135.246 55.048 135.55 54.868 135.838 54.62L136.174 55.304C135.91 55.56 135.574 55.76 135.166 55.904C134.766 56.04 134.342 56.108 133.894 56.108ZM139.749 56.108C139.269 56.108 138.821 56.044 138.405 55.916C137.989 55.78 137.645 55.592 137.373 55.352L137.709 54.668C138.005 54.9 138.325 55.072 138.669 55.184C139.021 55.296 139.385 55.352 139.761 55.352C140.241 55.352 140.601 55.268 140.841 55.1C141.089 54.924 141.213 54.684 141.213 54.38C141.213 54.148 141.133 53.964 140.973 53.828C140.821 53.684 140.569 53.572 140.217 53.492L139.101 53.264C138.589 53.152 138.205 52.964 137.949 52.7C137.693 52.428 137.565 52.084 137.565 51.668C137.565 51.316 137.657 51.008 137.841 50.744C138.025 50.472 138.293 50.26 138.645 50.108C138.997 49.948 139.409 49.868 139.881 49.868C140.321 49.868 140.725 49.936 141.093 50.072C141.469 50.2 141.781 50.388 142.029 50.636L141.681 51.308C141.441 51.076 141.165 50.904 140.853 50.792C140.549 50.672 140.233 50.612 139.905 50.612C139.433 50.612 139.077 50.708 138.837 50.9C138.605 51.084 138.489 51.328 138.489 51.632C138.489 51.864 138.561 52.056 138.705 52.208C138.857 52.352 139.089 52.46 139.401 52.532L140.517 52.76C141.061 52.88 141.465 53.068 141.729 53.324C142.001 53.572 142.137 53.908 142.137 54.332C142.137 54.692 142.037 55.008 141.837 55.28C141.637 55.544 141.357 55.748 140.997 55.892C140.645 56.036 140.229 56.108 139.749 56.108ZM146.374 56.108C145.43 56.108 144.686 55.836 144.142 55.292C143.598 54.74 143.326 53.976 143.326 53C143.326 52.368 143.446 51.82 143.686 51.356C143.926 50.884 144.262 50.52 144.694 50.264C145.126 50 145.622 49.868 146.182 49.868C146.734 49.868 147.198 49.984 147.574 50.216C147.95 50.448 148.238 50.78 148.438 51.212C148.638 51.636 148.738 52.14 148.738 52.724V53.084H144.07V52.472H148.102L147.898 52.628C147.898 51.988 147.754 51.488 147.466 51.128C147.178 50.768 146.75 50.588 146.182 50.588C145.582 50.588 145.114 50.8 144.778 51.224C144.442 51.64 144.274 52.204 144.274 52.916V53.024C144.274 53.776 144.458 54.348 144.826 54.74C145.202 55.124 145.726 55.316 146.398 55.316C146.758 55.316 147.094 55.264 147.406 55.16C147.726 55.048 148.03 54.868 148.318 54.62L148.654 55.304C148.39 55.56 148.054 55.76 147.646 55.904C147.246 56.04 146.822 56.108 146.374 56.108ZM150.225 56V51.368C150.225 51.144 150.213 50.916 150.189 50.684C150.173 50.444 150.153 50.208 150.129 49.976H151.065L151.185 51.296H151.041C151.217 50.832 151.497 50.48 151.881 50.24C152.273 49.992 152.725 49.868 153.237 49.868C153.949 49.868 154.485 50.06 154.845 50.444C155.213 50.82 155.397 51.416 155.397 52.232V56H154.425V52.292C154.425 51.724 154.309 51.312 154.077 51.056C153.853 50.792 153.501 50.66 153.021 50.66C152.461 50.66 152.017 50.832 151.689 51.176C151.361 51.52 151.197 51.98 151.197 52.556V56H150.225ZM159.393 56.108C158.801 56.108 158.349 55.94 158.037 55.604C157.725 55.26 157.569 54.744 157.569 54.056V50.732H156.393V49.976H157.569V48.332L158.541 48.056V49.976H160.269V50.732H158.541V53.948C158.541 54.428 158.621 54.772 158.781 54.98C158.949 55.18 159.197 55.28 159.525 55.28C159.677 55.28 159.813 55.268 159.933 55.244C160.053 55.212 160.161 55.176 160.257 55.136V55.952C160.145 56 160.009 56.036 159.849 56.06C159.697 56.092 159.545 56.108 159.393 56.108Z" fill="#319274"/>
<path d="M176.848 56.108C176.168 56.108 175.556 56.02 175.012 55.844C174.468 55.668 173.996 55.42 173.596 55.1L173.98 54.212C174.26 54.42 174.544 54.596 174.832 54.74C175.12 54.876 175.428 54.98 175.756 55.052C176.092 55.116 176.456 55.148 176.848 55.148C177.544 55.148 178.056 55.024 178.384 54.776C178.72 54.52 178.888 54.184 178.888 53.768C178.888 53.408 178.772 53.132 178.54 52.94C178.308 52.748 177.904 52.596 177.328 52.484L176.044 52.22C175.268 52.06 174.688 51.8 174.304 51.44C173.928 51.072 173.74 50.576 173.74 49.952C173.74 49.448 173.872 49.008 174.136 48.632C174.408 48.248 174.78 47.952 175.252 47.744C175.732 47.536 176.292 47.432 176.932 47.432C177.524 47.432 178.072 47.52 178.576 47.696C179.08 47.872 179.504 48.132 179.848 48.476L179.464 49.328C179.104 49 178.716 48.764 178.3 48.62C177.892 48.468 177.428 48.392 176.908 48.392C176.276 48.392 175.776 48.528 175.408 48.8C175.04 49.072 174.856 49.44 174.856 49.904C174.856 50.272 174.972 50.564 175.204 50.78C175.436 50.988 175.82 51.148 176.356 51.26L177.64 51.512C178.456 51.672 179.052 51.924 179.428 52.268C179.812 52.612 180.004 53.088 180.004 53.696C180.004 54.176 179.876 54.6 179.62 54.968C179.364 55.328 179 55.608 178.528 55.808C178.056 56.008 177.496 56.108 176.848 56.108ZM184.215 56.108C183.255 56.108 182.495 55.832 181.935 55.28C181.383 54.728 181.107 53.968 181.107 53C181.107 52.36 181.227 51.808 181.467 51.344C181.715 50.872 182.055 50.508 182.487 50.252C182.919 49.988 183.423 49.856 183.999 49.856C184.551 49.856 185.019 49.976 185.403 50.216C185.787 50.448 186.079 50.78 186.279 51.212C186.479 51.644 186.579 52.156 186.579 52.748V53.108H181.959V52.46H185.835L185.631 52.616C185.631 51.992 185.491 51.508 185.211 51.164C184.939 50.82 184.535 50.648 183.999 50.648C183.415 50.648 182.963 50.852 182.643 51.26C182.323 51.66 182.163 52.208 182.163 52.904V53.012C182.163 53.748 182.343 54.304 182.703 54.68C183.071 55.056 183.579 55.244 184.227 55.244C184.587 55.244 184.923 55.192 185.235 55.088C185.547 54.984 185.847 54.812 186.135 54.572L186.495 55.328C186.223 55.576 185.883 55.768 185.475 55.904C185.075 56.04 184.655 56.108 184.215 56.108ZM188.006 56V51.392C188.006 51.16 187.998 50.924 187.982 50.684C187.966 50.444 187.942 50.204 187.91 49.964H188.966L189.086 51.26H188.942C189.126 50.804 189.41 50.456 189.794 50.216C190.178 49.976 190.626 49.856 191.138 49.856C191.85 49.856 192.386 50.052 192.746 50.444C193.106 50.828 193.286 51.428 193.286 52.244V56H192.194V52.304C192.194 51.752 192.086 51.356 191.87 51.116C191.654 50.868 191.318 50.744 190.862 50.744C190.318 50.744 189.886 50.908 189.566 51.236C189.254 51.564 189.098 52.008 189.098 52.568V56H188.006ZM195.072 56V49.964H196.164V56H195.072ZM194.976 48.644V47.468H196.272V48.644H194.976ZM200.534 56.108C199.942 56.108 199.43 55.984 198.998 55.736C198.566 55.48 198.23 55.12 197.99 54.656C197.75 54.184 197.63 53.624 197.63 52.976C197.63 52.336 197.75 51.784 197.99 51.32C198.23 50.848 198.566 50.488 198.998 50.24C199.43 49.984 199.942 49.856 200.534 49.856C201.126 49.856 201.638 49.984 202.07 50.24C202.51 50.488 202.846 50.848 203.078 51.32C203.318 51.784 203.438 52.336 203.438 52.976C203.438 53.624 203.318 54.184 203.078 54.656C202.846 55.12 202.51 55.48 202.07 55.736C201.638 55.984 201.126 56.108 200.534 56.108ZM200.534 55.244C201.078 55.244 201.514 55.052 201.842 54.668C202.17 54.284 202.334 53.72 202.334 52.976C202.334 52.232 202.17 51.672 201.842 51.296C201.514 50.92 201.078 50.732 200.534 50.732C199.982 50.732 199.542 50.92 199.214 51.296C198.894 51.672 198.734 52.232 198.734 52.976C198.734 53.72 198.894 54.284 199.214 54.668C199.542 55.052 199.982 55.244 200.534 55.244ZM204.892 56V51.44C204.892 51.2 204.884 50.956 204.868 50.708C204.86 50.452 204.84 50.204 204.808 49.964H205.864L205.996 51.476L205.816 51.488C205.896 51.12 206.032 50.816 206.224 50.576C206.424 50.328 206.66 50.148 206.932 50.036C207.212 49.916 207.5 49.856 207.796 49.856C207.924 49.856 208.032 49.86 208.12 49.868C208.208 49.876 208.296 49.896 208.384 49.928L208.36 50.9C208.24 50.852 208.128 50.824 208.024 50.816C207.928 50.8 207.808 50.792 207.664 50.792C207.312 50.792 207.008 50.872 206.752 51.032C206.504 51.192 206.312 51.404 206.176 51.668C206.048 51.932 205.984 52.216 205.984 52.52V56H204.892ZM212.63 56V47.54H215.498C216.442 47.54 217.238 47.704 217.886 48.032C218.542 48.36 219.038 48.84 219.374 49.472C219.71 50.096 219.878 50.86 219.878 51.764C219.878 52.668 219.71 53.436 219.374 54.068C219.038 54.7 218.542 55.18 217.886 55.508C217.238 55.836 216.442 56 215.498 56H212.63ZM213.746 55.052H215.414C216.542 55.052 217.378 54.78 217.922 54.236C218.466 53.692 218.738 52.868 218.738 51.764C218.738 50.66 218.466 49.84 217.922 49.304C217.378 48.76 216.542 48.488 215.414 48.488H213.746V55.052ZM224.258 56.108C223.298 56.108 222.538 55.832 221.978 55.28C221.426 54.728 221.15 53.968 221.15 53C221.15 52.36 221.27 51.808 221.51 51.344C221.758 50.872 222.098 50.508 222.53 50.252C222.962 49.988 223.466 49.856 224.042 49.856C224.594 49.856 225.062 49.976 225.446 50.216C225.83 50.448 226.122 50.78 226.322 51.212C226.522 51.644 226.622 52.156 226.622 52.748V53.108H222.002V52.46H225.878L225.674 52.616C225.674 51.992 225.534 51.508 225.254 51.164C224.982 50.82 224.578 50.648 224.042 50.648C223.458 50.648 223.006 50.852 222.686 51.26C222.366 51.66 222.206 52.208 222.206 52.904V53.012C222.206 53.748 222.386 54.304 222.746 54.68C223.114 55.056 223.622 55.244 224.27 55.244C224.63 55.244 224.966 55.192 225.278 55.088C225.59 54.984 225.89 54.812 226.178 54.572L226.538 55.328C226.266 55.576 225.926 55.768 225.518 55.904C225.118 56.04 224.698 56.108 224.258 56.108ZM229.743 56L227.163 49.964H228.339L230.439 55.148H230.103L232.239 49.964H233.355L230.763 56H229.743ZM237.031 56.108C236.071 56.108 235.311 55.832 234.751 55.28C234.199 54.728 233.923 53.968 233.923 53C233.923 52.36 234.043 51.808 234.283 51.344C234.531 50.872 234.871 50.508 235.303 50.252C235.735 49.988 236.239 49.856 236.815 49.856C237.367 49.856 237.835 49.976 238.219 50.216C238.603 50.448 238.895 50.78 239.095 51.212C239.295 51.644 239.395 52.156 239.395 52.748V53.108H234.775V52.46H238.651L238.447 52.616C238.447 51.992 238.307 51.508 238.027 51.164C237.755 50.82 237.351 50.648 236.815 50.648C236.231 50.648 235.779 50.852 235.459 51.26C235.139 51.66 234.979 52.208 234.979 52.904V53.012C234.979 53.748 235.159 54.304 235.519 54.68C235.887 55.056 236.395 55.244 237.043 55.244C237.403 55.244 237.739 55.192 238.051 55.088C238.363 54.984 238.663 54.812 238.951 54.572L239.311 55.328C239.039 55.576 238.699 55.768 238.291 55.904C237.891 56.04 237.471 56.108 237.031 56.108ZM240.822 56V47.168H241.914V56H240.822ZM246.284 56.108C245.692 56.108 245.18 55.984 244.748 55.736C244.316 55.48 243.98 55.12 243.74 54.656C243.5 54.184 243.38 53.624 243.38 52.976C243.38 52.336 243.5 51.784 243.74 51.32C243.98 50.848 244.316 50.488 244.748 50.24C245.18 49.984 245.692 49.856 246.284 49.856C246.876 49.856 247.388 49.984 247.82 50.24C248.26 50.488 248.596 50.848 248.828 51.32C249.068 51.784 249.188 52.336 249.188 52.976C249.188 53.624 249.068 54.184 248.828 54.656C248.596 55.12 248.26 55.48 247.82 55.736C247.388 55.984 246.876 56.108 246.284 56.108ZM246.284 55.244C246.828 55.244 247.264 55.052 247.592 54.668C247.92 54.284 248.084 53.72 248.084 52.976C248.084 52.232 247.92 51.672 247.592 51.296C247.264 50.92 246.828 50.732 246.284 50.732C245.732 50.732 245.292 50.92 244.964 51.296C244.644 51.672 244.484 52.232 244.484 52.976C244.484 53.72 244.644 54.284 244.964 54.668C245.292 55.052 245.732 55.244 246.284 55.244ZM250.654 58.592V51.392C250.654 51.16 250.646 50.924 250.63 50.684C250.614 50.444 250.59 50.204 250.558 49.964H251.614L251.746 51.356H251.614C251.734 50.892 251.99 50.528 252.382 50.264C252.774 49.992 253.242 49.856 253.786 49.856C254.322 49.856 254.79 49.98 255.19 50.228C255.59 50.476 255.898 50.836 256.114 51.308C256.338 51.772 256.45 52.328 256.45 52.976C256.45 53.624 256.338 54.184 256.114 54.656C255.898 55.128 255.59 55.488 255.19 55.736C254.79 55.984 254.322 56.108 253.786 56.108C253.25 56.108 252.786 55.976 252.394 55.712C252.01 55.44 251.75 55.076 251.614 54.62H251.746V58.592H250.654ZM253.534 55.244C254.086 55.244 254.526 55.052 254.854 54.668C255.182 54.284 255.346 53.72 255.346 52.976C255.346 52.232 255.182 51.672 254.854 51.296C254.526 50.92 254.086 50.732 253.534 50.732C252.982 50.732 252.542 50.92 252.214 51.296C251.894 51.672 251.734 52.232 251.734 52.976C251.734 53.72 251.894 54.284 252.214 54.668C252.542 55.052 252.982 55.244 253.534 55.244ZM260.668 56.108C259.708 56.108 258.948 55.832 258.388 55.28C257.836 54.728 257.56 53.968 257.56 53C257.56 52.36 257.68 51.808 257.92 51.344C258.168 50.872 258.508 50.508 258.94 50.252C259.372 49.988 259.876 49.856 260.452 49.856C261.004 49.856 261.472 49.976 261.856 50.216C262.24 50.448 262.532 50.78 262.732 51.212C262.932 51.644 263.032 52.156 263.032 52.748V53.108H258.412V52.46H262.288L262.084 52.616C262.084 51.992 261.944 51.508 261.664 51.164C261.392 50.82 260.988 50.648 260.452 50.648C259.868 50.648 259.416 50.852 259.096 51.26C258.776 51.66 258.616 52.208 258.616 52.904V53.012C258.616 53.748 258.796 54.304 259.156 54.68C259.524 55.056 260.032 55.244 260.68 55.244C261.04 55.244 261.376 55.192 261.688 55.088C262 54.984 262.3 54.812 262.588 54.572L262.948 55.328C262.676 55.576 262.336 55.768 261.928 55.904C261.528 56.04 261.108 56.108 260.668 56.108ZM264.447 56V51.44C264.447 51.2 264.439 50.956 264.423 50.708C264.415 50.452 264.395 50.204 264.363 49.964H265.419L265.551 51.476L265.371 51.488C265.451 51.12 265.587 50.816 265.779 50.576C265.979 50.328 266.215 50.148 266.487 50.036C266.767 49.916 267.055 49.856 267.351 49.856C267.479 49.856 267.587 49.86 267.675 49.868C267.763 49.876 267.851 49.896 267.939 49.928L267.915 50.9C267.795 50.852 267.683 50.824 267.579 50.816C267.483 50.8 267.363 50.792 267.219 50.792C266.867 50.792 266.563 50.872 266.307 51.032C266.059 51.192 265.867 51.404 265.731 51.668C265.603 51.932 265.539 52.216 265.539 52.52V56H264.447Z" fill="#C4C4C4"/>
<path d="M60.0042 82.932C59.6122 82.932 59.2482 82.84 58.9122 82.656C58.5762 82.464 58.3082 82.204 58.1082 81.876C57.9082 81.548 57.8082 81.184 57.8082 80.784C57.8082 80.416 57.9002 80.068 58.0842 79.74C58.2762 79.412 58.5362 79.148 58.8642 78.948C59.2002 78.74 59.5802 78.636 60.0042 78.636C60.3962 78.636 60.7562 78.732 61.0842 78.924C61.4122 79.108 61.6762 79.36 61.8762 79.68C62.0842 80 62.1882 80.368 62.1882 80.784C62.1882 81.176 62.0882 81.536 61.8882 81.864C61.6962 82.192 61.4322 82.452 61.0962 82.644C60.7682 82.836 60.4042 82.932 60.0042 82.932ZM70.056 84V75.54H73.44C74.336 75.54 75.028 75.732 75.516 76.116C76.004 76.5 76.248 77.044 76.248 77.748C76.248 78.276 76.088 78.716 75.768 79.068C75.456 79.42 75.02 79.652 74.46 79.764V79.596C75.084 79.668 75.572 79.884 75.924 80.244C76.284 80.596 76.464 81.072 76.464 81.672C76.464 82.424 76.212 83 75.708 83.4C75.212 83.8 74.508 84 73.596 84H70.056ZM71.028 83.196H73.5C74.108 83.196 74.588 83.08 74.94 82.848C75.3 82.608 75.48 82.212 75.48 81.66C75.48 81.1 75.3 80.704 74.94 80.472C74.588 80.232 74.108 80.112 73.5 80.112H71.028V83.196ZM71.028 79.32H73.296C73.952 79.32 74.444 79.192 74.772 78.936C75.1 78.68 75.264 78.312 75.264 77.832C75.264 77.336 75.1 76.964 74.772 76.716C74.444 76.46 73.952 76.332 73.296 76.332H71.028V79.32ZM80.3963 84.108C79.8603 84.108 79.3923 83.984 78.9923 83.736C78.5923 83.48 78.2803 83.12 78.0563 82.656C77.8403 82.192 77.7323 81.636 77.7323 80.988C77.7323 80.332 77.8403 79.772 78.0563 79.308C78.2803 78.844 78.5923 78.488 78.9923 78.24C79.3923 77.992 79.8603 77.868 80.3963 77.868C80.9403 77.868 81.4083 78.008 81.8003 78.288C82.2003 78.56 82.4643 78.932 82.5923 79.404H82.4483L82.5803 77.976H83.5163C83.4923 78.208 83.4683 78.444 83.4443 78.684C83.4283 78.916 83.4203 79.144 83.4203 79.368V84H82.4483V82.584H82.5803C82.4523 83.056 82.1883 83.428 81.7883 83.7C81.3883 83.972 80.9243 84.108 80.3963 84.108ZM80.5883 83.316C81.1643 83.316 81.6203 83.12 81.9563 82.728C82.2923 82.328 82.4603 81.748 82.4603 80.988C82.4603 80.22 82.2923 79.64 81.9563 79.248C81.6203 78.848 81.1643 78.648 80.5883 78.648C80.0203 78.648 79.5643 78.848 79.2203 79.248C78.8843 79.64 78.7163 80.22 78.7163 80.988C78.7163 81.748 78.8843 82.328 79.2203 82.728C79.5643 83.12 80.0203 83.316 80.5883 83.316ZM87.8316 84.108C87.2396 84.108 86.7236 83.98 86.2836 83.724C85.8516 83.468 85.5156 83.104 85.2756 82.632C85.0436 82.16 84.9276 81.6 84.9276 80.952C84.9276 80.296 85.0476 79.74 85.2876 79.284C85.5276 78.82 85.8636 78.468 86.2956 78.228C86.7356 77.988 87.2476 77.868 87.8316 77.868C88.2156 77.868 88.5876 77.936 88.9476 78.072C89.3156 78.208 89.6196 78.4 89.8596 78.648L89.5116 79.344C89.2716 79.112 89.0076 78.94 88.7196 78.828C88.4396 78.716 88.1636 78.66 87.8916 78.66C87.2676 78.66 86.7836 78.856 86.4396 79.248C86.0956 79.64 85.9236 80.212 85.9236 80.964C85.9236 81.708 86.0956 82.284 86.4396 82.692C86.7836 83.1 87.2676 83.304 87.8916 83.304C88.1556 83.304 88.4276 83.252 88.7076 83.148C88.9956 83.044 89.2636 82.872 89.5116 82.632L89.8596 83.316C89.6116 83.572 89.3036 83.768 88.9356 83.904C88.5676 84.04 88.1996 84.108 87.8316 84.108ZM91.241 84V75.168H92.213V80.652H92.237L95.033 77.976H96.257L92.957 81.12L92.981 80.628L96.569 84H95.309L92.237 81.168H92.213V84H91.241ZM99.9404 84.108C98.9964 84.108 98.2524 83.836 97.7084 83.292C97.1644 82.74 96.8924 81.976 96.8924 81C96.8924 80.368 97.0124 79.82 97.2524 79.356C97.4924 78.884 97.8284 78.52 98.2604 78.264C98.6924 78 99.1884 77.868 99.7484 77.868C100.3 77.868 100.764 77.984 101.14 78.216C101.516 78.448 101.804 78.78 102.004 79.212C102.204 79.636 102.304 80.14 102.304 80.724V81.084H97.6364V80.472H101.668L101.464 80.628C101.464 79.988 101.32 79.488 101.032 79.128C100.744 78.768 100.316 78.588 99.7484 78.588C99.1484 78.588 98.6804 78.8 98.3444 79.224C98.0084 79.64 97.8404 80.204 97.8404 80.916V81.024C97.8404 81.776 98.0244 82.348 98.3924 82.74C98.7684 83.124 99.2924 83.316 99.9644 83.316C100.324 83.316 100.66 83.264 100.972 83.16C101.292 83.048 101.596 82.868 101.884 82.62L102.22 83.304C101.956 83.56 101.62 83.76 101.212 83.904C100.812 84.04 100.388 84.108 99.9404 84.108ZM103.792 84V79.368C103.792 79.144 103.78 78.916 103.756 78.684C103.74 78.444 103.72 78.208 103.696 77.976H104.632L104.752 79.296H104.608C104.784 78.832 105.064 78.48 105.448 78.24C105.84 77.992 106.292 77.868 106.804 77.868C107.516 77.868 108.052 78.06 108.412 78.444C108.78 78.82 108.964 79.416 108.964 80.232V84H107.992V80.292C107.992 79.724 107.876 79.312 107.644 79.056C107.42 78.792 107.068 78.66 106.588 78.66C106.028 78.66 105.584 78.832 105.256 79.176C104.928 79.52 104.764 79.98 104.764 80.556V84H103.792ZM113.103 84.108C112.575 84.108 112.111 83.984 111.711 83.736C111.311 83.48 110.999 83.12 110.775 82.656C110.559 82.192 110.451 81.636 110.451 80.988C110.451 80.332 110.559 79.772 110.775 79.308C110.999 78.844 111.311 78.488 111.711 78.24C112.111 77.992 112.575 77.868 113.103 77.868C113.647 77.868 114.115 78.004 114.507 78.276C114.907 78.548 115.175 78.916 115.311 79.38H115.167V75.168H116.139V84H115.179V82.56H115.311C115.183 83.04 114.919 83.42 114.519 83.7C114.119 83.972 113.647 84.108 113.103 84.108ZM113.307 83.316C113.875 83.316 114.331 83.12 114.675 82.728C115.019 82.328 115.191 81.748 115.191 80.988C115.191 80.22 115.019 79.64 114.675 79.248C114.331 78.848 113.875 78.648 113.307 78.648C112.739 78.648 112.283 78.848 111.939 79.248C111.603 79.64 111.435 80.22 111.435 80.988C111.435 81.748 111.603 82.328 111.939 82.728C112.283 83.12 112.739 83.316 113.307 83.316ZM123.427 84.108C122.899 84.108 122.435 83.984 122.035 83.736C121.635 83.48 121.323 83.12 121.099 82.656C120.883 82.192 120.775 81.636 120.775 80.988C120.775 80.332 120.883 79.772 121.099 79.308C121.323 78.844 121.635 78.488 122.035 78.24C122.435 77.992 122.899 77.868 123.427 77.868C123.971 77.868 124.439 78.004 124.831 78.276C125.231 78.548 125.499 78.916 125.635 79.38H125.491V75.168H126.463V84H125.503V82.56H125.635C125.507 83.04 125.243 83.42 124.843 83.7C124.443 83.972 123.971 84.108 123.427 84.108ZM123.631 83.316C124.199 83.316 124.655 83.12 124.999 82.728C125.343 82.328 125.515 81.748 125.515 80.988C125.515 80.22 125.343 79.64 124.999 79.248C124.655 78.848 124.199 78.648 123.631 78.648C123.063 78.648 122.607 78.848 122.263 79.248C121.927 79.64 121.759 80.22 121.759 80.988C121.759 81.748 121.927 82.328 122.263 82.728C122.607 83.12 123.063 83.316 123.631 83.316ZM131.019 84.108C130.075 84.108 129.331 83.836 128.787 83.292C128.243 82.74 127.971 81.976 127.971 81C127.971 80.368 128.091 79.82 128.331 79.356C128.571 78.884 128.907 78.52 129.339 78.264C129.771 78 130.267 77.868 130.827 77.868C131.379 77.868 131.843 77.984 132.219 78.216C132.595 78.448 132.883 78.78 133.083 79.212C133.283 79.636 133.383 80.14 133.383 80.724V81.084H128.715V80.472H132.747L132.543 80.628C132.543 79.988 132.399 79.488 132.111 79.128C131.823 78.768 131.395 78.588 130.827 78.588C130.227 78.588 129.759 78.8 129.423 79.224C129.087 79.64 128.919 80.204 128.919 80.916V81.024C128.919 81.776 129.103 82.348 129.471 82.74C129.847 83.124 130.371 83.316 131.043 83.316C131.403 83.316 131.739 83.264 132.051 83.16C132.371 83.048 132.675 82.868 132.963 82.62L133.299 83.304C133.035 83.56 132.699 83.76 132.291 83.904C131.891 84.04 131.467 84.108 131.019 84.108ZM136.576 84L133.996 77.976H135.052L137.212 83.28H136.888L139.072 77.976H140.08L137.5 84H136.576ZM143.769 84.108C142.825 84.108 142.081 83.836 141.537 83.292C140.993 82.74 140.721 81.976 140.721 81C140.721 80.368 140.841 79.82 141.081 79.356C141.321 78.884 141.657 78.52 142.089 78.264C142.521 78 143.017 77.868 143.577 77.868C144.129 77.868 144.593 77.984 144.969 78.216C145.345 78.448 145.633 78.78 145.833 79.212C146.033 79.636 146.133 80.14 146.133 80.724V81.084H141.465V80.472H145.497L145.293 80.628C145.293 79.988 145.149 79.488 144.861 79.128C144.573 78.768 144.145 78.588 143.577 78.588C142.977 78.588 142.509 78.8 142.173 79.224C141.837 79.64 141.669 80.204 141.669 80.916V81.024C141.669 81.776 141.853 82.348 142.221 82.74C142.597 83.124 143.121 83.316 143.793 83.316C144.153 83.316 144.489 83.264 144.801 83.16C145.121 83.048 145.425 82.868 145.713 82.62L146.049 83.304C145.785 83.56 145.449 83.76 145.041 83.904C144.641 84.04 144.217 84.108 143.769 84.108ZM147.62 84V75.168H148.592V84H147.62ZM152.951 84.108C152.375 84.108 151.871 83.984 151.439 83.736C151.015 83.48 150.687 83.12 150.455 82.656C150.223 82.184 150.107 81.628 150.107 80.988C150.107 80.34 150.223 79.784 150.455 79.32C150.687 78.856 151.015 78.5 151.439 78.252C151.871 77.996 152.375 77.868 152.951 77.868C153.535 77.868 154.039 77.996 154.463 78.252C154.895 78.5 155.227 78.856 155.459 79.32C155.699 79.784 155.819 80.34 155.819 80.988C155.819 81.628 155.699 82.184 155.459 82.656C155.227 83.12 154.895 83.48 154.463 83.736C154.039 83.984 153.535 84.108 152.951 84.108ZM152.951 83.316C153.527 83.316 153.983 83.12 154.319 82.728C154.655 82.328 154.823 81.748 154.823 80.988C154.823 80.22 154.651 79.64 154.307 79.248C153.971 78.848 153.519 78.648 152.951 78.648C152.383 78.648 151.931 78.848 151.595 79.248C151.259 79.64 151.091 80.22 151.091 80.988C151.091 81.748 151.259 82.328 151.595 82.728C151.931 83.12 152.383 83.316 152.951 83.316ZM157.335 86.592V79.368C157.335 79.144 157.323 78.916 157.299 78.684C157.283 78.444 157.263 78.208 157.239 77.976H158.175L158.307 79.404H158.163C158.291 78.932 158.551 78.56 158.943 78.288C159.335 78.008 159.803 77.868 160.347 77.868C160.891 77.868 161.359 77.992 161.751 78.24C162.151 78.488 162.463 78.844 162.687 79.308C162.911 79.772 163.023 80.332 163.023 80.988C163.023 81.636 162.911 82.192 162.687 82.656C162.471 83.12 162.163 83.48 161.763 83.736C161.363 83.984 160.891 84.108 160.347 84.108C159.811 84.108 159.347 83.972 158.955 83.7C158.563 83.428 158.303 83.056 158.175 82.584H158.307V86.592H157.335ZM160.155 83.316C160.731 83.316 161.187 83.12 161.523 82.728C161.867 82.328 162.039 81.748 162.039 80.988C162.039 80.22 161.867 79.64 161.523 79.248C161.187 78.848 160.731 78.648 160.155 78.648C159.587 78.648 159.131 78.848 158.787 79.248C158.451 79.64 158.283 80.22 158.283 80.988C158.283 81.748 158.451 82.328 158.787 82.728C159.131 83.12 159.587 83.316 160.155 83.316ZM164.53 84V79.368C164.53 79.144 164.518 78.916 164.494 78.684C164.478 78.444 164.458 78.208 164.434 77.976H165.37L165.49 79.296H165.346C165.506 78.84 165.758 78.488 166.102 78.24C166.454 77.992 166.878 77.868 167.374 77.868C167.878 77.868 168.286 77.988 168.598 78.228C168.918 78.468 169.134 78.84 169.246 79.344H169.066C169.218 78.888 169.486 78.528 169.87 78.264C170.254 78 170.702 77.868 171.214 77.868C171.878 77.868 172.378 78.06 172.714 78.444C173.05 78.82 173.218 79.416 173.218 80.232V84H172.246V80.292C172.246 79.724 172.146 79.312 171.946 79.056C171.746 78.792 171.426 78.66 170.986 78.66C170.482 78.66 170.082 78.836 169.786 79.188C169.498 79.532 169.354 79.996 169.354 80.58V84H168.382V80.292C168.382 79.724 168.282 79.312 168.082 79.056C167.882 78.792 167.562 78.66 167.122 78.66C166.618 78.66 166.222 78.836 165.934 79.188C165.646 79.532 165.502 79.996 165.502 80.58V84H164.53ZM177.741 84.108C176.797 84.108 176.053 83.836 175.509 83.292C174.965 82.74 174.693 81.976 174.693 81C174.693 80.368 174.813 79.82 175.053 79.356C175.293 78.884 175.629 78.52 176.061 78.264C176.493 78 176.989 77.868 177.549 77.868C178.101 77.868 178.565 77.984 178.941 78.216C179.317 78.448 179.605 78.78 179.805 79.212C180.005 79.636 180.105 80.14 180.105 80.724V81.084H175.437V80.472H179.469L179.265 80.628C179.265 79.988 179.121 79.488 178.833 79.128C178.545 78.768 178.117 78.588 177.549 78.588C176.949 78.588 176.481 78.8 176.145 79.224C175.809 79.64 175.641 80.204 175.641 80.916V81.024C175.641 81.776 175.825 82.348 176.193 82.74C176.569 83.124 177.093 83.316 177.765 83.316C178.125 83.316 178.461 83.264 178.773 83.16C179.093 83.048 179.397 82.868 179.685 82.62L180.021 83.304C179.757 83.56 179.421 83.76 179.013 83.904C178.613 84.04 178.189 84.108 177.741 84.108ZM181.593 84V79.368C181.593 79.144 181.581 78.916 181.557 78.684C181.541 78.444 181.521 78.208 181.497 77.976H182.433L182.553 79.296H182.409C182.585 78.832 182.865 78.48 183.249 78.24C183.641 77.992 184.093 77.868 184.605 77.868C185.317 77.868 185.853 78.06 186.213 78.444C186.581 78.82 186.765 79.416 186.765 80.232V84H185.793V80.292C185.793 79.724 185.677 79.312 185.445 79.056C185.221 78.792 184.869 78.66 184.389 78.66C183.829 78.66 183.385 78.832 183.057 79.176C182.729 79.52 182.565 79.98 182.565 80.556V84H181.593ZM190.76 84.108C190.168 84.108 189.716 83.94 189.404 83.604C189.092 83.26 188.936 82.744 188.936 82.056V78.732H187.76V77.976H188.936V76.332L189.908 76.056V77.976H191.636V78.732H189.908V81.948C189.908 82.428 189.988 82.772 190.148 82.98C190.316 83.18 190.564 83.28 190.892 83.28C191.044 83.28 191.18 83.268 191.3 83.244C191.42 83.212 191.528 83.176 191.624 83.136V83.952C191.512 84 191.376 84.036 191.216 84.06C191.064 84.092 190.912 84.108 190.76 84.108ZM60.0042 97.932C59.6122 97.932 59.2482 97.84 58.9122 97.656C58.5762 97.464 58.3082 97.204 58.1082 96.876C57.9082 96.548 57.8082 96.184 57.8082 95.784C57.8082 95.416 57.9002 95.068 58.0842 94.74C58.2762 94.412 58.5362 94.148 58.8642 93.948C59.2002 93.74 59.5802 93.636 60.0042 93.636C60.3962 93.636 60.7562 93.732 61.0842 93.924C61.4122 94.108 61.6762 94.36 61.8762 94.68C62.0842 95 62.1882 95.368 62.1882 95.784C62.1882 96.176 62.0882 96.536 61.8882 96.864C61.6962 97.192 61.4322 97.452 61.0962 97.644C60.7682 97.836 60.4042 97.932 60.0042 97.932ZM70.056 99V90.54H72.864C73.8 90.54 74.592 90.704 75.24 91.032C75.888 91.352 76.38 91.828 76.716 92.46C77.052 93.084 77.22 93.852 77.22 94.764C77.22 95.668 77.052 96.436 76.716 97.068C76.38 97.7 75.888 98.18 75.24 98.508C74.592 98.836 73.8 99 72.864 99H70.056ZM71.052 98.148H72.792C73.944 98.148 74.8 97.868 75.36 97.308C75.92 96.74 76.2 95.892 76.2 94.764C76.2 93.628 75.92 92.78 75.36 92.22C74.8 91.66 73.944 91.38 72.792 91.38H71.052V98.148ZM81.2048 99.108C80.6688 99.108 80.2008 98.984 79.8008 98.736C79.4008 98.48 79.0888 98.12 78.8648 97.656C78.6488 97.192 78.5408 96.636 78.5408 95.988C78.5408 95.332 78.6488 94.772 78.8648 94.308C79.0888 93.844 79.4008 93.488 79.8008 93.24C80.2008 92.992 80.6688 92.868 81.2048 92.868C81.7488 92.868 82.2168 93.008 82.6088 93.288C83.0088 93.56 83.2728 93.932 83.4008 94.404H83.2568L83.3888 92.976H84.3248C84.3008 93.208 84.2768 93.444 84.2528 93.684C84.2368 93.916 84.2288 94.144 84.2288 94.368V99H83.2568V97.584H83.3888C83.2608 98.056 82.9968 98.428 82.5968 98.7C82.1968 98.972 81.7328 99.108 81.2048 99.108ZM81.3968 98.316C81.9728 98.316 82.4288 98.12 82.7648 97.728C83.1008 97.328 83.2688 96.748 83.2688 95.988C83.2688 95.22 83.1008 94.64 82.7648 94.248C82.4288 93.848 81.9728 93.648 81.3968 93.648C80.8288 93.648 80.3728 93.848 80.0288 94.248C79.6928 94.64 79.5248 95.22 79.5248 95.988C79.5248 96.748 79.6928 97.328 80.0288 97.728C80.3728 98.12 80.8288 98.316 81.3968 98.316ZM88.2442 99.108C87.6522 99.108 87.2002 98.94 86.8882 98.604C86.5762 98.26 86.4202 97.744 86.4202 97.056V93.732H85.2442V92.976H86.4202V91.332L87.3922 91.056V92.976H89.1202V93.732H87.3922V96.948C87.3922 97.428 87.4722 97.772 87.6322 97.98C87.8002 98.18 88.0482 98.28 88.3762 98.28C88.5282 98.28 88.6642 98.268 88.7842 98.244C88.9042 98.212 89.0122 98.176 89.1082 98.136V98.952C88.9962 99 88.8602 99.036 88.7002 99.06C88.5482 99.092 88.3962 99.108 88.2442 99.108ZM92.5955 99.108C92.0595 99.108 91.5915 98.984 91.1915 98.736C90.7915 98.48 90.4795 98.12 90.2555 97.656C90.0395 97.192 89.9315 96.636 89.9315 95.988C89.9315 95.332 90.0395 94.772 90.2555 94.308C90.4795 93.844 90.7915 93.488 91.1915 93.24C91.5915 92.992 92.0595 92.868 92.5955 92.868C93.1395 92.868 93.6075 93.008 93.9995 93.288C94.3995 93.56 94.6635 93.932 94.7915 94.404H94.6475L94.7795 92.976H95.7155C95.6915 93.208 95.6675 93.444 95.6435 93.684C95.6275 93.916 95.6195 94.144 95.6195 94.368V99H94.6475V97.584H94.7795C94.6515 98.056 94.3875 98.428 93.9875 98.7C93.5875 98.972 93.1235 99.108 92.5955 99.108ZM92.7875 98.316C93.3635 98.316 93.8195 98.12 94.1555 97.728C94.4915 97.328 94.6595 96.748 94.6595 95.988C94.6595 95.22 94.4915 94.64 94.1555 94.248C93.8195 93.848 93.3635 93.648 92.7875 93.648C92.2195 93.648 91.7635 93.848 91.4195 94.248C91.0835 94.64 90.9155 95.22 90.9155 95.988C90.9155 96.748 91.0835 97.328 91.4195 97.728C91.7635 98.12 92.2195 98.316 92.7875 98.316ZM100.523 99.108C99.9788 99.108 99.5108 98.972 99.1188 98.7C98.7268 98.42 98.4628 98.04 98.3268 97.56H98.4588V99H97.4988V90.168H98.4708V94.38H98.3268C98.4628 93.916 98.7268 93.548 99.1188 93.276C99.5108 93.004 99.9788 92.868 100.523 92.868C101.067 92.868 101.535 92.996 101.927 93.252C102.327 93.5 102.635 93.856 102.851 94.32C103.075 94.784 103.187 95.34 103.187 95.988C103.187 96.636 103.075 97.192 102.851 97.656C102.627 98.12 102.315 98.48 101.915 98.736C101.523 98.984 101.059 99.108 100.523 99.108ZM100.319 98.316C100.887 98.316 101.343 98.12 101.687 97.728C102.031 97.336 102.203 96.756 102.203 95.988C102.203 95.22 102.031 94.64 101.687 94.248C101.343 93.848 100.887 93.648 100.319 93.648C99.7508 93.648 99.2948 93.848 98.9508 94.248C98.6148 94.64 98.4468 95.22 98.4468 95.988C98.4468 96.748 98.6148 97.328 98.9508 97.728C99.2948 98.12 99.7508 98.316 100.319 98.316ZM106.986 99.108C106.45 99.108 105.982 98.984 105.582 98.736C105.182 98.48 104.87 98.12 104.646 97.656C104.43 97.192 104.322 96.636 104.322 95.988C104.322 95.332 104.43 94.772 104.646 94.308C104.87 93.844 105.182 93.488 105.582 93.24C105.982 92.992 106.45 92.868 106.986 92.868C107.53 92.868 107.998 93.008 108.39 93.288C108.79 93.56 109.054 93.932 109.182 94.404H109.038L109.17 92.976H110.106C110.082 93.208 110.058 93.444 110.034 93.684C110.018 93.916 110.01 94.144 110.01 94.368V99H109.038V97.584H109.17C109.042 98.056 108.778 98.428 108.378 98.7C107.978 98.972 107.514 99.108 106.986 99.108ZM107.178 98.316C107.754 98.316 108.21 98.12 108.546 97.728C108.882 97.328 109.05 96.748 109.05 95.988C109.05 95.22 108.882 94.64 108.546 94.248C108.21 93.848 107.754 93.648 107.178 93.648C106.61 93.648 106.154 93.848 105.81 94.248C105.474 94.64 105.306 95.22 105.306 95.988C105.306 96.748 105.474 97.328 105.81 97.728C106.154 98.12 106.61 98.316 107.178 98.316ZM113.893 99.108C113.413 99.108 112.965 99.044 112.549 98.916C112.133 98.78 111.789 98.592 111.517 98.352L111.853 97.668C112.149 97.9 112.469 98.072 112.813 98.184C113.165 98.296 113.529 98.352 113.905 98.352C114.385 98.352 114.745 98.268 114.985 98.1C115.233 97.924 115.357 97.684 115.357 97.38C115.357 97.148 115.277 96.964 115.117 96.828C114.965 96.684 114.713 96.572 114.361 96.492L113.245 96.264C112.733 96.152 112.349 95.964 112.093 95.7C111.837 95.428 111.709 95.084 111.709 94.668C111.709 94.316 111.801 94.008 111.985 93.744C112.169 93.472 112.437 93.26 112.789 93.108C113.141 92.948 113.553 92.868 114.025 92.868C114.465 92.868 114.869 92.936 115.237 93.072C115.613 93.2 115.925 93.388 116.173 93.636L115.825 94.308C115.585 94.076 115.309 93.904 114.997 93.792C114.693 93.672 114.377 93.612 114.049 93.612C113.577 93.612 113.221 93.708 112.981 93.9C112.749 94.084 112.633 94.328 112.633 94.632C112.633 94.864 112.705 95.056 112.849 95.208C113.001 95.352 113.233 95.46 113.545 95.532L114.661 95.76C115.205 95.88 115.609 96.068 115.873 96.324C116.145 96.572 116.281 96.908 116.281 97.332C116.281 97.692 116.181 98.008 115.981 98.28C115.781 98.544 115.501 98.748 115.141 98.892C114.789 99.036 114.373 99.108 113.893 99.108ZM120.519 99.108C119.575 99.108 118.831 98.836 118.287 98.292C117.743 97.74 117.471 96.976 117.471 96C117.471 95.368 117.591 94.82 117.831 94.356C118.071 93.884 118.407 93.52 118.839 93.264C119.271 93 119.767 92.868 120.327 92.868C120.879 92.868 121.343 92.984 121.719 93.216C122.095 93.448 122.383 93.78 122.583 94.212C122.783 94.636 122.883 95.14 122.883 95.724V96.084H118.215V95.472H122.247L122.043 95.628C122.043 94.988 121.899 94.488 121.611 94.128C121.323 93.768 120.895 93.588 120.327 93.588C119.727 93.588 119.259 93.8 118.923 94.224C118.587 94.64 118.419 95.204 118.419 95.916V96.024C118.419 96.776 118.603 97.348 118.971 97.74C119.347 98.124 119.871 98.316 120.543 98.316C120.903 98.316 121.239 98.264 121.551 98.16C121.871 98.048 122.175 97.868 122.463 97.62L122.799 98.304C122.535 98.56 122.199 98.76 121.791 98.904C121.391 99.04 120.967 99.108 120.519 99.108ZM127.499 99V94.368C127.499 94.144 127.487 93.916 127.463 93.684C127.447 93.444 127.427 93.208 127.403 92.976H128.339L128.459 94.296H128.315C128.475 93.84 128.727 93.488 129.071 93.24C129.423 92.992 129.847 92.868 130.343 92.868C130.847 92.868 131.255 92.988 131.567 93.228C131.887 93.468 132.103 93.84 132.215 94.344H132.035C132.187 93.888 132.455 93.528 132.839 93.264C133.223 93 133.671 92.868 134.183 92.868C134.847 92.868 135.347 93.06 135.683 93.444C136.019 93.82 136.187 94.416 136.187 95.232V99H135.215V95.292C135.215 94.724 135.115 94.312 134.915 94.056C134.715 93.792 134.395 93.66 133.955 93.66C133.451 93.66 133.051 93.836 132.755 94.188C132.467 94.532 132.323 94.996 132.323 95.58V99H131.351V95.292C131.351 94.724 131.251 94.312 131.051 94.056C130.851 93.792 130.531 93.66 130.091 93.66C129.587 93.66 129.191 93.836 128.903 94.188C128.615 94.532 128.471 94.996 128.471 95.58V99H127.499ZM140.326 99.108C139.79 99.108 139.322 98.984 138.922 98.736C138.522 98.48 138.21 98.12 137.986 97.656C137.77 97.192 137.662 96.636 137.662 95.988C137.662 95.332 137.77 94.772 137.986 94.308C138.21 93.844 138.522 93.488 138.922 93.24C139.322 92.992 139.79 92.868 140.326 92.868C140.87 92.868 141.338 93.008 141.73 93.288C142.13 93.56 142.394 93.932 142.522 94.404H142.378L142.51 92.976H143.446C143.422 93.208 143.398 93.444 143.374 93.684C143.358 93.916 143.35 94.144 143.35 94.368V99H142.378V97.584H142.51C142.382 98.056 142.118 98.428 141.718 98.7C141.318 98.972 140.854 99.108 140.326 99.108ZM140.518 98.316C141.094 98.316 141.55 98.12 141.886 97.728C142.222 97.328 142.39 96.748 142.39 95.988C142.39 95.22 142.222 94.64 141.886 94.248C141.55 93.848 141.094 93.648 140.518 93.648C139.95 93.648 139.494 93.848 139.15 94.248C138.814 94.64 138.646 95.22 138.646 95.988C138.646 96.748 138.814 97.328 139.15 97.728C139.494 98.12 139.95 98.316 140.518 98.316ZM145.229 99V94.368C145.229 94.144 145.217 93.916 145.193 93.684C145.177 93.444 145.157 93.208 145.133 92.976H146.069L146.189 94.296H146.045C146.221 93.832 146.501 93.48 146.885 93.24C147.277 92.992 147.729 92.868 148.241 92.868C148.953 92.868 149.489 93.06 149.849 93.444C150.217 93.82 150.401 94.416 150.401 95.232V99H149.429V95.292C149.429 94.724 149.313 94.312 149.081 94.056C148.857 93.792 148.505 93.66 148.025 93.66C147.465 93.66 147.021 93.832 146.693 94.176C146.365 94.52 146.201 94.98 146.201 95.556V99H145.229ZM154.553 99.108C154.017 99.108 153.549 98.984 153.149 98.736C152.749 98.48 152.437 98.12 152.213 97.656C151.997 97.192 151.889 96.636 151.889 95.988C151.889 95.332 151.997 94.772 152.213 94.308C152.437 93.844 152.749 93.488 153.149 93.24C153.549 92.992 154.017 92.868 154.553 92.868C155.097 92.868 155.565 93.008 155.957 93.288C156.357 93.56 156.621 93.932 156.749 94.404H156.605L156.737 92.976H157.673C157.649 93.208 157.625 93.444 157.601 93.684C157.585 93.916 157.577 94.144 157.577 94.368V99H156.605V97.584H156.737C156.609 98.056 156.345 98.428 155.945 98.7C155.545 98.972 155.081 99.108 154.553 99.108ZM154.745 98.316C155.321 98.316 155.777 98.12 156.113 97.728C156.449 97.328 156.617 96.748 156.617 95.988C156.617 95.22 156.449 94.64 156.113 94.248C155.777 93.848 155.321 93.648 154.745 93.648C154.177 93.648 153.721 93.848 153.377 94.248C153.041 94.64 152.873 95.22 152.873 95.988C152.873 96.748 153.041 97.328 153.377 97.728C153.721 98.12 154.177 98.316 154.745 98.316ZM162.108 101.676C161.588 101.676 161.108 101.612 160.668 101.484C160.228 101.356 159.832 101.16 159.48 100.896L159.768 100.164C160.016 100.34 160.26 100.48 160.5 100.584C160.74 100.688 160.988 100.764 161.244 100.812C161.5 100.868 161.772 100.896 162.06 100.896C162.652 100.896 163.1 100.74 163.404 100.428C163.708 100.116 163.86 99.672 163.86 99.096V97.332H163.98C163.852 97.804 163.588 98.18 163.188 98.46C162.788 98.732 162.32 98.868 161.784 98.868C161.232 98.868 160.752 98.748 160.344 98.508C159.944 98.26 159.632 97.912 159.408 97.464C159.192 97.008 159.084 96.472 159.084 95.856C159.084 95.248 159.192 94.72 159.408 94.272C159.632 93.824 159.944 93.48 160.344 93.24C160.752 92.992 161.232 92.868 161.784 92.868C162.328 92.868 162.796 93.004 163.188 93.276C163.588 93.548 163.852 93.924 163.98 94.404L163.86 94.284L163.968 92.976H164.916C164.884 93.208 164.86 93.444 164.844 93.684C164.828 93.916 164.82 94.144 164.82 94.368V98.964C164.82 99.86 164.588 100.536 164.124 100.992C163.668 101.448 162.996 101.676 162.108 101.676ZM161.964 98.076C162.548 98.076 163.008 97.884 163.344 97.5C163.68 97.108 163.848 96.56 163.848 95.856C163.848 95.152 163.68 94.608 163.344 94.224C163.008 93.84 162.548 93.648 161.964 93.648C161.388 93.648 160.928 93.84 160.584 94.224C160.24 94.608 160.068 95.152 160.068 95.856C160.068 96.56 160.24 97.108 160.584 97.5C160.928 97.884 161.388 98.076 161.964 98.076ZM169.362 99.108C168.418 99.108 167.674 98.836 167.13 98.292C166.586 97.74 166.314 96.976 166.314 96C166.314 95.368 166.434 94.82 166.674 94.356C166.914 93.884 167.25 93.52 167.682 93.264C168.114 93 168.61 92.868 169.17 92.868C169.722 92.868 170.186 92.984 170.562 93.216C170.938 93.448 171.226 93.78 171.426 94.212C171.626 94.636 171.726 95.14 171.726 95.724V96.084H167.058V95.472H171.09L170.886 95.628C170.886 94.988 170.742 94.488 170.454 94.128C170.166 93.768 169.738 93.588 169.17 93.588C168.57 93.588 168.102 93.8 167.766 94.224C167.43 94.64 167.262 95.204 167.262 95.916V96.024C167.262 96.776 167.446 97.348 167.814 97.74C168.19 98.124 168.714 98.316 169.386 98.316C169.746 98.316 170.082 98.264 170.394 98.16C170.714 98.048 171.018 97.868 171.306 97.62L171.642 98.304C171.378 98.56 171.042 98.76 170.634 98.904C170.234 99.04 169.81 99.108 169.362 99.108ZM173.214 99V94.368C173.214 94.144 173.202 93.916 173.178 93.684C173.162 93.444 173.142 93.208 173.118 92.976H174.054L174.174 94.296H174.03C174.19 93.84 174.442 93.488 174.786 93.24C175.138 92.992 175.562 92.868 176.058 92.868C176.562 92.868 176.97 92.988 177.282 93.228C177.602 93.468 177.818 93.84 177.93 94.344H177.75C177.902 93.888 178.17 93.528 178.554 93.264C178.938 93 179.386 92.868 179.898 92.868C180.562 92.868 181.062 93.06 181.398 93.444C181.734 93.82 181.902 94.416 181.902 95.232V99H180.93V95.292C180.93 94.724 180.83 94.312 180.63 94.056C180.43 93.792 180.11 93.66 179.67 93.66C179.166 93.66 178.766 93.836 178.47 94.188C178.182 94.532 178.038 94.996 178.038 95.58V99H177.066V95.292C177.066 94.724 176.966 94.312 176.766 94.056C176.566 93.792 176.246 93.66 175.806 93.66C175.302 93.66 174.906 93.836 174.618 94.188C174.33 94.532 174.186 94.996 174.186 95.58V99H173.214ZM186.425 99.108C185.481 99.108 184.737 98.836 184.193 98.292C183.649 97.74 183.377 96.976 183.377 96C183.377 95.368 183.497 94.82 183.737 94.356C183.977 93.884 184.313 93.52 184.745 93.264C185.177 93 185.673 92.868 186.233 92.868C186.785 92.868 187.249 92.984 187.625 93.216C188.001 93.448 188.289 93.78 188.489 94.212C188.689 94.636 188.789 95.14 188.789 95.724V96.084H184.121V95.472H188.153L187.949 95.628C187.949 94.988 187.805 94.488 187.517 94.128C187.229 93.768 186.801 93.588 186.233 93.588C185.633 93.588 185.165 93.8 184.829 94.224C184.493 94.64 184.325 95.204 184.325 95.916V96.024C184.325 96.776 184.509 97.348 184.877 97.74C185.253 98.124 185.777 98.316 186.449 98.316C186.809 98.316 187.145 98.264 187.457 98.16C187.777 98.048 188.081 97.868 188.369 97.62L188.705 98.304C188.441 98.56 188.105 98.76 187.697 98.904C187.297 99.04 186.873 99.108 186.425 99.108ZM190.276 99V94.368C190.276 94.144 190.264 93.916 190.24 93.684C190.224 93.444 190.204 93.208 190.18 92.976H191.116L191.236 94.296H191.092C191.268 93.832 191.548 93.48 191.932 93.24C192.324 92.992 192.776 92.868 193.288 92.868C194 92.868 194.536 93.06 194.896 93.444C195.264 93.82 195.448 94.416 195.448 95.232V99H194.476V95.292C194.476 94.724 194.36 94.312 194.128 94.056C193.904 93.792 193.552 93.66 193.072 93.66C192.512 93.66 192.068 93.832 191.74 94.176C191.412 94.52 191.248 94.98 191.248 95.556V99H190.276ZM199.443 99.108C198.851 99.108 198.399 98.94 198.087 98.604C197.775 98.26 197.619 97.744 197.619 97.056V93.732H196.443V92.976H197.619V91.332L198.591 91.056V92.976H200.319V93.732H198.591V96.948C198.591 97.428 198.671 97.772 198.831 97.98C198.999 98.18 199.247 98.28 199.575 98.28C199.727 98.28 199.863 98.268 199.983 98.244C200.103 98.212 200.211 98.176 200.307 98.136V98.952C200.195 99 200.059 99.036 199.899 99.06C199.747 99.092 199.595 99.108 199.443 99.108ZM60.0042 112.932C59.6122 112.932 59.2482 112.84 58.9122 112.656C58.5762 112.464 58.3082 112.204 58.1082 111.876C57.9082 111.548 57.8082 111.184 57.8082 110.784C57.8082 110.416 57.9002 110.068 58.0842 109.74C58.2762 109.412 58.5362 109.148 58.8642 108.948C59.2002 108.74 59.5802 108.636 60.0042 108.636C60.3962 108.636 60.7562 108.732 61.0842 108.924C61.4122 109.108 61.6762 109.36 61.8762 109.68C62.0842 110 62.1882 110.368 62.1882 110.784C62.1882 111.176 62.0882 111.536 61.8882 111.864C61.6962 112.192 61.4322 112.452 61.0962 112.644C60.7682 112.836 60.4042 112.932 60.0042 112.932ZM72.816 114.108C72.136 114.108 71.528 114.02 70.992 113.844C70.456 113.668 69.988 113.416 69.588 113.088L69.948 112.296C70.228 112.504 70.508 112.68 70.788 112.824C71.076 112.96 71.384 113.064 71.712 113.136C72.04 113.2 72.408 113.232 72.816 113.232C73.528 113.232 74.056 113.1 74.4 112.836C74.744 112.572 74.916 112.22 74.916 111.78C74.916 111.404 74.796 111.116 74.556 110.916C74.316 110.716 73.896 110.556 73.296 110.436L72.036 110.184C71.26 110.024 70.68 109.764 70.296 109.404C69.92 109.044 69.732 108.556 69.732 107.94C69.732 107.436 69.86 106.996 70.116 106.62C70.38 106.244 70.748 105.952 71.22 105.744C71.692 105.536 72.24 105.432 72.864 105.432C73.464 105.432 74.012 105.524 74.508 105.708C75.004 105.884 75.428 106.144 75.78 106.488L75.432 107.256C75.056 106.92 74.66 106.68 74.244 106.536C73.836 106.384 73.372 106.308 72.852 106.308C72.196 106.308 71.676 106.452 71.292 106.74C70.916 107.02 70.728 107.404 70.728 107.892C70.728 108.284 70.848 108.592 71.088 108.816C71.328 109.032 71.724 109.196 72.276 109.308L73.548 109.56C74.364 109.728 74.964 109.98 75.348 110.316C75.732 110.652 75.924 111.124 75.924 111.732C75.924 112.196 75.796 112.608 75.54 112.968C75.292 113.328 74.936 113.608 74.472 113.808C74.008 114.008 73.456 114.108 72.816 114.108ZM79.8966 114.108C79.3206 114.108 78.8166 113.984 78.3846 113.736C77.9606 113.48 77.6326 113.12 77.4006 112.656C77.1686 112.184 77.0526 111.628 77.0526 110.988C77.0526 110.34 77.1686 109.784 77.4006 109.32C77.6326 108.856 77.9606 108.5 78.3846 108.252C78.8166 107.996 79.3206 107.868 79.8966 107.868C80.4806 107.868 80.9846 107.996 81.4086 108.252C81.8406 108.5 82.1726 108.856 82.4046 109.32C82.6446 109.784 82.7646 110.34 82.7646 110.988C82.7646 111.628 82.6446 112.184 82.4046 112.656C82.1726 113.12 81.8406 113.48 81.4086 113.736C80.9846 113.984 80.4806 114.108 79.8966 114.108ZM79.8966 113.316C80.4726 113.316 80.9286 113.12 81.2646 112.728C81.6006 112.328 81.7686 111.748 81.7686 110.988C81.7686 110.22 81.5966 109.64 81.2526 109.248C80.9166 108.848 80.4646 108.648 79.8966 108.648C79.3286 108.648 78.8766 108.848 78.5406 109.248C78.2046 109.64 78.0366 110.22 78.0366 110.988C78.0366 111.748 78.2046 112.328 78.5406 112.728C78.8766 113.12 79.3286 113.316 79.8966 113.316ZM84.5334 114V108.732H83.3574V107.976H84.7974L84.5334 108.228V107.22C84.5334 106.54 84.7054 106.02 85.0494 105.66C85.3934 105.3 85.8854 105.12 86.5254 105.12C86.6854 105.12 86.8494 105.136 87.0174 105.168C87.1934 105.192 87.3374 105.228 87.4494 105.276V106.08C87.3534 106.04 87.2334 106.008 87.0894 105.984C86.9534 105.952 86.8134 105.936 86.6694 105.936C86.4214 105.936 86.2094 105.988 86.0334 106.092C85.8574 106.188 85.7254 106.336 85.6374 106.536C85.5494 106.736 85.5054 106.992 85.5054 107.304V108.18L85.3494 107.976H87.1854V108.732H85.5054V114H84.5334ZM90.1309 114.108C89.5389 114.108 89.0869 113.94 88.7749 113.604C88.4629 113.26 88.3069 112.744 88.3069 112.056V108.732H87.1309V107.976H88.3069V106.332L89.2789 106.056V107.976H91.0069V108.732H89.2789V111.948C89.2789 112.428 89.3589 112.772 89.5189 112.98C89.6869 113.18 89.9349 113.28 90.2629 113.28C90.4149 113.28 90.5509 113.268 90.6709 113.244C90.7909 113.212 90.8989 113.176 90.9949 113.136V113.952C90.8829 114 90.7469 114.036 90.5869 114.06C90.4349 114.092 90.2829 114.108 90.1309 114.108ZM93.8685 114L91.6365 107.976H92.6685L94.5285 113.28H94.2165L96.1365 107.976H96.9765L98.8605 113.28H98.5605L100.433 107.976H101.417L99.1725 114H98.2365L96.2925 108.612H96.7725L94.8165 114H93.8685ZM104.865 114.108C104.329 114.108 103.861 113.984 103.461 113.736C103.061 113.48 102.749 113.12 102.525 112.656C102.309 112.192 102.201 111.636 102.201 110.988C102.201 110.332 102.309 109.772 102.525 109.308C102.749 108.844 103.061 108.488 103.461 108.24C103.861 107.992 104.329 107.868 104.865 107.868C105.409 107.868 105.877 108.008 106.269 108.288C106.669 108.56 106.933 108.932 107.061 109.404H106.917L107.049 107.976H107.985C107.961 108.208 107.937 108.444 107.913 108.684C107.897 108.916 107.889 109.144 107.889 109.368V114H106.917V112.584H107.049C106.921 113.056 106.657 113.428 106.257 113.7C105.857 113.972 105.393 114.108 104.865 114.108ZM105.057 113.316C105.633 113.316 106.089 113.12 106.425 112.728C106.761 112.328 106.929 111.748 106.929 110.988C106.929 110.22 106.761 109.64 106.425 109.248C106.089 108.848 105.633 108.648 105.057 108.648C104.489 108.648 104.033 108.848 103.689 109.248C103.353 109.64 103.185 110.22 103.185 110.988C103.185 111.748 103.353 112.328 103.689 112.728C104.033 113.12 104.489 113.316 105.057 113.316ZM109.744 114V109.428C109.744 109.188 109.736 108.944 109.72 108.696C109.712 108.448 109.696 108.208 109.672 107.976H110.608L110.728 109.44L110.56 109.452C110.64 109.092 110.78 108.796 110.98 108.564C111.18 108.332 111.416 108.16 111.688 108.048C111.96 107.928 112.244 107.868 112.54 107.868C112.66 107.868 112.764 107.872 112.852 107.88C112.948 107.888 113.036 107.908 113.116 107.94L113.104 108.804C112.984 108.764 112.872 108.74 112.768 108.732C112.672 108.716 112.56 108.708 112.432 108.708C112.08 108.708 111.772 108.792 111.508 108.96C111.252 109.128 111.056 109.344 110.92 109.608C110.792 109.872 110.728 110.152 110.728 110.448V114H109.744ZM116.733 114.108C115.789 114.108 115.045 113.836 114.501 113.292C113.957 112.74 113.685 111.976 113.685 111C113.685 110.368 113.805 109.82 114.045 109.356C114.285 108.884 114.621 108.52 115.053 108.264C115.485 108 115.981 107.868 116.541 107.868C117.093 107.868 117.557 107.984 117.933 108.216C118.309 108.448 118.597 108.78 118.797 109.212C118.997 109.636 119.097 110.14 119.097 110.724V111.084H114.429V110.472H118.461L118.257 110.628C118.257 109.988 118.113 109.488 117.825 109.128C117.537 108.768 117.109 108.588 116.541 108.588C115.941 108.588 115.473 108.8 115.137 109.224C114.801 109.64 114.633 110.204 114.633 110.916V111.024C114.633 111.776 114.817 112.348 115.185 112.74C115.561 113.124 116.085 113.316 116.757 113.316C117.117 113.316 117.453 113.264 117.765 113.16C118.085 113.048 118.389 112.868 118.677 112.62L119.013 113.304C118.749 113.56 118.413 113.76 118.005 113.904C117.605 114.04 117.181 114.108 116.733 114.108ZM123.69 114V109.428C123.69 109.188 123.682 108.944 123.666 108.696C123.658 108.448 123.642 108.208 123.618 107.976H124.554L124.674 109.44L124.506 109.452C124.586 109.092 124.726 108.796 124.926 108.564C125.126 108.332 125.362 108.16 125.634 108.048C125.906 107.928 126.19 107.868 126.486 107.868C126.606 107.868 126.71 107.872 126.798 107.88C126.894 107.888 126.982 107.908 127.062 107.94L127.05 108.804C126.93 108.764 126.818 108.74 126.714 108.732C126.618 108.716 126.506 108.708 126.378 108.708C126.026 108.708 125.718 108.792 125.454 108.96C125.198 109.128 125.002 109.344 124.866 109.608C124.738 109.872 124.674 110.152 124.674 110.448V114H123.69ZM130.679 114.108C129.735 114.108 128.991 113.836 128.447 113.292C127.903 112.74 127.631 111.976 127.631 111C127.631 110.368 127.751 109.82 127.991 109.356C128.231 108.884 128.567 108.52 128.999 108.264C129.431 108 129.927 107.868 130.487 107.868C131.039 107.868 131.503 107.984 131.879 108.216C132.255 108.448 132.543 108.78 132.743 109.212C132.943 109.636 133.043 110.14 133.043 110.724V111.084H128.375V110.472H132.407L132.203 110.628C132.203 109.988 132.059 109.488 131.771 109.128C131.483 108.768 131.055 108.588 130.487 108.588C129.887 108.588 129.419 108.8 129.083 109.224C128.747 109.64 128.579 110.204 128.579 110.916V111.024C128.579 111.776 128.763 112.348 129.131 112.74C129.507 113.124 130.031 113.316 130.703 113.316C131.063 113.316 131.399 113.264 131.711 113.16C132.031 113.048 132.335 112.868 132.623 112.62L132.959 113.304C132.695 113.56 132.359 113.76 131.951 113.904C131.551 114.04 131.127 114.108 130.679 114.108ZM136.236 114L133.656 107.976H134.712L136.872 113.28H136.548L138.732 107.976H139.74L137.16 114H136.236ZM143.429 114.108C142.485 114.108 141.741 113.836 141.197 113.292C140.653 112.74 140.381 111.976 140.381 111C140.381 110.368 140.501 109.82 140.741 109.356C140.981 108.884 141.317 108.52 141.749 108.264C142.181 108 142.677 107.868 143.237 107.868C143.789 107.868 144.253 107.984 144.629 108.216C145.005 108.448 145.293 108.78 145.493 109.212C145.693 109.636 145.793 110.14 145.793 110.724V111.084H141.125V110.472H145.157L144.953 110.628C144.953 109.988 144.809 109.488 144.521 109.128C144.233 108.768 143.805 108.588 143.237 108.588C142.637 108.588 142.169 108.8 141.833 109.224C141.497 109.64 141.329 110.204 141.329 110.916V111.024C141.329 111.776 141.513 112.348 141.881 112.74C142.257 113.124 142.781 113.316 143.453 113.316C143.813 113.316 144.149 113.264 144.461 113.16C144.781 113.048 145.085 112.868 145.373 112.62L145.709 113.304C145.445 113.56 145.109 113.76 144.701 113.904C144.301 114.04 143.877 114.108 143.429 114.108ZM147.256 114V109.428C147.256 109.188 147.248 108.944 147.232 108.696C147.224 108.448 147.208 108.208 147.184 107.976H148.12L148.24 109.44L148.072 109.452C148.152 109.092 148.292 108.796 148.492 108.564C148.692 108.332 148.928 108.16 149.2 108.048C149.472 107.928 149.756 107.868 150.052 107.868C150.172 107.868 150.276 107.872 150.364 107.88C150.46 107.888 150.548 107.908 150.628 107.94L150.616 108.804C150.496 108.764 150.384 108.74 150.28 108.732C150.184 108.716 150.072 108.708 149.944 108.708C149.592 108.708 149.284 108.792 149.02 108.96C148.764 109.128 148.568 109.344 148.432 109.608C148.304 109.872 148.24 110.152 148.24 110.448V114H147.256ZM153.585 114.108C153.105 114.108 152.657 114.044 152.241 113.916C151.825 113.78 151.481 113.592 151.209 113.352L151.545 112.668C151.841 112.9 152.161 113.072 152.505 113.184C152.857 113.296 153.221 113.352 153.597 113.352C154.077 113.352 154.437 113.268 154.677 113.1C154.925 112.924 155.049 112.684 155.049 112.38C155.049 112.148 154.969 111.964 154.809 111.828C154.657 111.684 154.405 111.572 154.053 111.492L152.937 111.264C152.425 111.152 152.041 110.964 151.785 110.7C151.529 110.428 151.401 110.084 151.401 109.668C151.401 109.316 151.493 109.008 151.677 108.744C151.861 108.472 152.129 108.26 152.481 108.108C152.833 107.948 153.245 107.868 153.717 107.868C154.157 107.868 154.561 107.936 154.929 108.072C155.305 108.2 155.617 108.388 155.865 108.636L155.517 109.308C155.277 109.076 155.001 108.904 154.689 108.792C154.385 108.672 154.069 108.612 153.741 108.612C153.269 108.612 152.913 108.708 152.673 108.9C152.441 109.084 152.325 109.328 152.325 109.632C152.325 109.864 152.397 110.056 152.541 110.208C152.693 110.352 152.925 110.46 153.237 110.532L154.353 110.76C154.897 110.88 155.301 111.068 155.565 111.324C155.837 111.572 155.973 111.908 155.973 112.332C155.973 112.692 155.873 113.008 155.673 113.28C155.473 113.544 155.193 113.748 154.833 113.892C154.481 114.036 154.065 114.108 153.585 114.108ZM160.21 114.108C159.266 114.108 158.522 113.836 157.978 113.292C157.434 112.74 157.162 111.976 157.162 111C157.162 110.368 157.282 109.82 157.522 109.356C157.762 108.884 158.098 108.52 158.53 108.264C158.962 108 159.458 107.868 160.018 107.868C160.57 107.868 161.034 107.984 161.41 108.216C161.786 108.448 162.074 108.78 162.274 109.212C162.474 109.636 162.574 110.14 162.574 110.724V111.084H157.906V110.472H161.938L161.734 110.628C161.734 109.988 161.59 109.488 161.302 109.128C161.014 108.768 160.586 108.588 160.018 108.588C159.418 108.588 158.95 108.8 158.614 109.224C158.278 109.64 158.11 110.204 158.11 110.916V111.024C158.11 111.776 158.294 112.348 158.662 112.74C159.038 113.124 159.562 113.316 160.234 113.316C160.594 113.316 160.93 113.264 161.242 113.16C161.562 113.048 161.866 112.868 162.154 112.62L162.49 113.304C162.226 113.56 161.89 113.76 161.482 113.904C161.082 114.04 160.658 114.108 160.21 114.108ZM169.866 114.108C168.922 114.108 168.178 113.836 167.634 113.292C167.09 112.74 166.818 111.976 166.818 111C166.818 110.368 166.938 109.82 167.178 109.356C167.418 108.884 167.754 108.52 168.186 108.264C168.618 108 169.114 107.868 169.674 107.868C170.226 107.868 170.69 107.984 171.066 108.216C171.442 108.448 171.73 108.78 171.93 109.212C172.13 109.636 172.23 110.14 172.23 110.724V111.084H167.562V110.472H171.594L171.39 110.628C171.39 109.988 171.246 109.488 170.958 109.128C170.67 108.768 170.242 108.588 169.674 108.588C169.074 108.588 168.606 108.8 168.27 109.224C167.934 109.64 167.766 110.204 167.766 110.916V111.024C167.766 111.776 167.95 112.348 168.318 112.74C168.694 113.124 169.218 113.316 169.89 113.316C170.25 113.316 170.586 113.264 170.898 113.16C171.218 113.048 171.522 112.868 171.81 112.62L172.146 113.304C171.882 113.56 171.546 113.76 171.138 113.904C170.738 114.04 170.314 114.108 169.866 114.108ZM173.718 114V109.368C173.718 109.144 173.706 108.916 173.682 108.684C173.666 108.444 173.646 108.208 173.622 107.976H174.558L174.678 109.296H174.534C174.71 108.832 174.99 108.48 175.374 108.24C175.766 107.992 176.218 107.868 176.73 107.868C177.442 107.868 177.978 108.06 178.338 108.444C178.706 108.82 178.89 109.416 178.89 110.232V114H177.918V110.292C177.918 109.724 177.802 109.312 177.57 109.056C177.346 108.792 176.994 108.66 176.514 108.66C175.954 108.66 175.51 108.832 175.182 109.176C174.854 109.52 174.69 109.98 174.69 110.556V114H173.718ZM183.401 116.676C182.881 116.676 182.401 116.612 181.961 116.484C181.521 116.356 181.125 116.16 180.773 115.896L181.061 115.164C181.309 115.34 181.553 115.48 181.793 115.584C182.033 115.688 182.281 115.764 182.537 115.812C182.793 115.868 183.065 115.896 183.353 115.896C183.945 115.896 184.393 115.74 184.697 115.428C185.001 115.116 185.153 114.672 185.153 114.096V112.332H185.273C185.145 112.804 184.881 113.18 184.481 113.46C184.081 113.732 183.613 113.868 183.077 113.868C182.525 113.868 182.045 113.748 181.637 113.508C181.237 113.26 180.925 112.912 180.701 112.464C180.485 112.008 180.377 111.472 180.377 110.856C180.377 110.248 180.485 109.72 180.701 109.272C180.925 108.824 181.237 108.48 181.637 108.24C182.045 107.992 182.525 107.868 183.077 107.868C183.621 107.868 184.089 108.004 184.481 108.276C184.881 108.548 185.145 108.924 185.273 109.404L185.153 109.284L185.261 107.976H186.209C186.177 108.208 186.153 108.444 186.137 108.684C186.121 108.916 186.113 109.144 186.113 109.368V113.964C186.113 114.86 185.881 115.536 185.417 115.992C184.961 116.448 184.289 116.676 183.401 116.676ZM183.257 113.076C183.841 113.076 184.301 112.884 184.637 112.5C184.973 112.108 185.141 111.56 185.141 110.856C185.141 110.152 184.973 109.608 184.637 109.224C184.301 108.84 183.841 108.648 183.257 108.648C182.681 108.648 182.221 108.84 181.877 109.224C181.533 109.608 181.361 110.152 181.361 110.856C181.361 111.56 181.533 112.108 181.877 112.5C182.221 112.884 182.681 113.076 183.257 113.076ZM187.979 114V107.976H188.951V114H187.979ZM187.859 106.608V105.516H189.059V106.608H187.859ZM190.839 114V109.368C190.839 109.144 190.827 108.916 190.803 108.684C190.787 108.444 190.767 108.208 190.743 107.976H191.679L191.799 109.296H191.655C191.831 108.832 192.111 108.48 192.495 108.24C192.887 107.992 193.339 107.868 193.851 107.868C194.563 107.868 195.099 108.06 195.459 108.444C195.827 108.82 196.011 109.416 196.011 110.232V114H195.039V110.292C195.039 109.724 194.923 109.312 194.691 109.056C194.467 108.792 194.115 108.66 193.635 108.66C193.075 108.66 192.631 108.832 192.303 109.176C191.975 109.52 191.811 109.98 191.811 110.556V114H190.839ZM200.546 114.108C199.602 114.108 198.858 113.836 198.314 113.292C197.77 112.74 197.498 111.976 197.498 111C197.498 110.368 197.618 109.82 197.858 109.356C198.098 108.884 198.434 108.52 198.866 108.264C199.298 108 199.794 107.868 200.354 107.868C200.906 107.868 201.37 107.984 201.746 108.216C202.122 108.448 202.41 108.78 202.61 109.212C202.81 109.636 202.91 110.14 202.91 110.724V111.084H198.242V110.472H202.274L202.07 110.628C202.07 109.988 201.926 109.488 201.638 109.128C201.35 108.768 200.922 108.588 200.354 108.588C199.754 108.588 199.286 108.8 198.95 109.224C198.614 109.64 198.446 110.204 198.446 110.916V111.024C198.446 111.776 198.63 112.348 198.998 112.74C199.374 113.124 199.898 113.316 200.57 113.316C200.93 113.316 201.266 113.264 201.578 113.16C201.898 113.048 202.202 112.868 202.49 112.62L202.826 113.304C202.562 113.56 202.226 113.76 201.818 113.904C201.418 114.04 200.994 114.108 200.546 114.108ZM207.073 114.108C206.129 114.108 205.385 113.836 204.841 113.292C204.297 112.74 204.025 111.976 204.025 111C204.025 110.368 204.145 109.82 204.385 109.356C204.625 108.884 204.961 108.52 205.393 108.264C205.825 108 206.321 107.868 206.881 107.868C207.433 107.868 207.897 107.984 208.273 108.216C208.649 108.448 208.937 108.78 209.137 109.212C209.337 109.636 209.437 110.14 209.437 110.724V111.084H204.769V110.472H208.801L208.597 110.628C208.597 109.988 208.453 109.488 208.165 109.128C207.877 108.768 207.449 108.588 206.881 108.588C206.281 108.588 205.813 108.8 205.477 109.224C205.141 109.64 204.973 110.204 204.973 110.916V111.024C204.973 111.776 205.157 112.348 205.525 112.74C205.901 113.124 206.425 113.316 207.097 113.316C207.457 113.316 207.793 113.264 208.105 113.16C208.425 113.048 208.729 112.868 209.017 112.62L209.353 113.304C209.089 113.56 208.753 113.76 208.345 113.904C207.945 114.04 207.521 114.108 207.073 114.108ZM210.901 114V109.428C210.901 109.188 210.893 108.944 210.877 108.696C210.869 108.448 210.853 108.208 210.829 107.976H211.765L211.885 109.44L211.717 109.452C211.797 109.092 211.937 108.796 212.137 108.564C212.337 108.332 212.573 108.16 212.845 108.048C213.117 107.928 213.401 107.868 213.697 107.868C213.817 107.868 213.921 107.872 214.009 107.88C214.105 107.888 214.193 107.908 214.273 107.94L214.261 108.804C214.141 108.764 214.029 108.74 213.925 108.732C213.829 108.716 213.717 108.708 213.589 108.708C213.237 108.708 212.929 108.792 212.665 108.96C212.409 109.128 212.213 109.344 212.077 109.608C211.949 109.872 211.885 110.152 211.885 110.448V114H210.901ZM215.284 114V107.976H216.256V114H215.284ZM215.164 106.608V105.516H216.364V106.608H215.164ZM218.143 114V109.368C218.143 109.144 218.131 108.916 218.107 108.684C218.091 108.444 218.071 108.208 218.047 107.976H218.983L219.103 109.296H218.959C219.135 108.832 219.415 108.48 219.799 108.24C220.191 107.992 220.643 107.868 221.155 107.868C221.867 107.868 222.403 108.06 222.763 108.444C223.131 108.82 223.315 109.416 223.315 110.232V114H222.343V110.292C222.343 109.724 222.227 109.312 221.995 109.056C221.771 108.792 221.419 108.66 220.939 108.66C220.379 108.66 219.935 108.832 219.607 109.176C219.279 109.52 219.115 109.98 219.115 110.556V114H218.143ZM227.827 116.676C227.307 116.676 226.827 116.612 226.387 116.484C225.947 116.356 225.551 116.16 225.199 115.896L225.487 115.164C225.735 115.34 225.979 115.48 226.219 115.584C226.459 115.688 226.707 115.764 226.963 115.812C227.219 115.868 227.491 115.896 227.779 115.896C228.371 115.896 228.819 115.74 229.123 115.428C229.427 115.116 229.579 114.672 229.579 114.096V112.332H229.699C229.571 112.804 229.307 113.18 228.907 113.46C228.507 113.732 228.039 113.868 227.503 113.868C226.951 113.868 226.471 113.748 226.063 113.508C225.663 113.26 225.351 112.912 225.127 112.464C224.911 112.008 224.803 111.472 224.803 110.856C224.803 110.248 224.911 109.72 225.127 109.272C225.351 108.824 225.663 108.48 226.063 108.24C226.471 107.992 226.951 107.868 227.503 107.868C228.047 107.868 228.515 108.004 228.907 108.276C229.307 108.548 229.571 108.924 229.699 109.404L229.579 109.284L229.687 107.976H230.635C230.603 108.208 230.579 108.444 230.563 108.684C230.547 108.916 230.539 109.144 230.539 109.368V113.964C230.539 114.86 230.307 115.536 229.843 115.992C229.387 116.448 228.715 116.676 227.827 116.676ZM227.683 113.076C228.267 113.076 228.727 112.884 229.063 112.5C229.399 112.108 229.567 111.56 229.567 110.856C229.567 110.152 229.399 109.608 229.063 109.224C228.727 108.84 228.267 108.648 227.683 108.648C227.107 108.648 226.647 108.84 226.303 109.224C225.959 109.608 225.787 110.152 225.787 110.856C225.787 111.56 225.959 112.108 226.303 112.5C226.647 112.884 227.107 113.076 227.683 113.076Z" fill="white"/>
</svg>
